<?xml version="1.0" encoding="utf-8"?>
<!-- Generator: Adobe Illustrator 23.1.0, SVG Export Plug-In . SVG Version: 6.00 Build 0)  -->
<svg version="1.1" id="Слой_1" xmlns="http://www.w3.org/2000/svg" xmlns:xlink="http://www.w3.org/1999/xlink" x="0px" y="0px"
	 viewBox="0 0 2000 2000" style="enable-background:new 0 0 2000 2000;" xml:space="preserve">
<g>
	<g>
		<rect x="1395" y="335" style="fill:#040404;" width="112" height="44"/>
		<rect x="1418" y="316" style="fill:#040404;" width="7" height="19"/>
		<rect x="1431.5" y="316" style="fill:#040404;" width="7" height="19"/>
		<rect x="1445" y="316" style="fill:#040404;" width="7" height="19"/>
		<rect x="1472" y="316" style="fill:#040404;" width="7" height="19"/>
		<rect x="1485" y="316" style="fill:#040404;" width="7" height="19"/>
		<rect x="1485" y="379" style="fill:#040404;" width="7" height="19"/>
		<rect x="1458.5" y="316" style="fill:#040404;" width="7" height="19"/>
		<rect x="1418" y="379" style="fill:#040404;" width="7" height="19"/>
		<rect x="1431.5" y="379" style="fill:#040404;" width="7" height="19"/>
		<rect x="1445" y="379" style="fill:#040404;" width="7" height="19"/>
		<rect x="1472" y="379" style="fill:#040404;" width="7" height="19"/>
		<rect x="1458.5" y="379" style="fill:#040404;" width="7" height="19"/>
	</g>
	<g>
		<rect x="270.7409668" y="1326" style="fill:#040404;" width="31.8214111" height="81.0000153"/>
		<rect x="257" y="1385.3035889" style="fill:#040404;" width="13.7410889" height="5.0625"/>
		<rect x="257" y="1375.5401611" style="fill:#040404;" width="13.7410889" height="5.0625"/>
		<rect x="257" y="1365.7768555" style="fill:#040404;" width="13.7410889" height="5.0625"/>
		<rect x="257" y="1346.25" style="fill:#040404;" width="13.7410889" height="5.0625"/>
		<rect x="257" y="1336.8482666" style="fill:#040404;" width="13.7410889" height="5.0625"/>
		<rect x="302.5625" y="1336.8481445" style="fill:#040404;" width="13.7410889" height="5.0625"/>
		<rect x="257" y="1356.0134277" style="fill:#040404;" width="13.7410889" height="5.0625"/>
		<rect x="302.5625" y="1385.3034668" style="fill:#040404;" width="13.7410889" height="5.0625"/>
		<rect x="302.5625" y="1375.5400391" style="fill:#040404;" width="13.7410889" height="5.0625"/>
		<rect x="302.5625" y="1365.7768555" style="fill:#040404;" width="13.7410889" height="5.0625"/>
		<rect x="302.5625" y="1346.25" style="fill:#040404;" width="13.7410889" height="5.0625"/>
		<rect x="302.5625" y="1356.0134277" style="fill:#040404;" width="13.7410889" height="5.0625"/>
	</g>
	<g>
		<rect x="633" y="753" style="fill:#040404;" width="247" height="247"/>
		<rect x="657" y="713" style="fill:#040404;" width="16" height="40"/>
		<rect x="687" y="713" style="fill:#040404;" width="16" height="40"/>
		<rect x="719" y="713" style="fill:#040404;" width="16" height="40"/>
		<rect x="747" y="713" style="fill:#040404;" width="16" height="40"/>
		<rect x="776" y="713" style="fill:#040404;" width="16" height="40"/>
		<rect x="809" y="713" style="fill:#040404;" width="16" height="40"/>
		<rect x="845" y="713" style="fill:#040404;" width="16" height="40"/>
		<rect x="657" y="1000" style="fill:#040404;" width="16" height="40"/>
		<rect x="687" y="1000" style="fill:#040404;" width="16" height="40"/>
		<rect x="719" y="1000" style="fill:#040404;" width="16" height="40"/>
		<rect x="747" y="1000" style="fill:#040404;" width="16" height="40"/>
		<rect x="776" y="1000" style="fill:#040404;" width="16" height="40"/>
		<rect x="809" y="1000" style="fill:#040404;" width="16" height="40"/>
		<rect x="845" y="1000" style="fill:#040404;" width="16" height="40"/>
		<rect x="880" y="765" style="fill:#040404;" width="40" height="16"/>
		<rect x="880" y="796" style="fill:#040404;" width="40" height="16"/>
		<rect x="880" y="824" style="fill:#040404;" width="40" height="16"/>
		<rect x="880" y="854" style="fill:#040404;" width="40" height="16"/>
		<rect x="880" y="884" style="fill:#040404;" width="40" height="16"/>
		<rect x="880" y="913" style="fill:#040404;" width="40" height="16"/>
		<rect x="880" y="939" style="fill:#040404;" width="40" height="16"/>
		<rect x="880" y="969" style="fill:#040404;" width="40" height="16"/>
		<rect x="593" y="765" style="fill:#040404;" width="40" height="16"/>
		<rect x="593" y="796" style="fill:#040404;" width="40" height="16"/>
		<rect x="593" y="824" style="fill:#040404;" width="40" height="16"/>
		<rect x="593" y="854" style="fill:#040404;" width="40" height="16"/>
		<rect x="593" y="884" style="fill:#040404;" width="40" height="16"/>
		<rect x="593" y="913" style="fill:#040404;" width="40" height="16"/>
		<rect x="593" y="939" style="fill:#040404;" width="40" height="16"/>
		<rect x="593" y="969" style="fill:#040404;" width="40" height="16"/>
	</g>
	<g>
		<rect x="1512.1253662" y="1650.1253662" style="fill:#040404;" width="105.7492676" height="105.7492676"/>
		<rect x="1522.4006348" y="1633" style="fill:#040404;" width="6.8500977" height="17.1253662"/>
		<rect x="1535.2446289" y="1633" style="fill:#040404;" width="6.8500977" height="17.1253662"/>
		<rect x="1548.9449463" y="1633" style="fill:#040404;" width="6.8500977" height="17.1253662"/>
		<rect x="1560.9327393" y="1633" style="fill:#040404;" width="6.8500977" height="17.1253662"/>
		<rect x="1573.3486328" y="1633" style="fill:#040404;" width="6.8500977" height="17.1253662"/>
		<rect x="1587.4770508" y="1633" style="fill:#040404;" width="6.8500977" height="17.1253662"/>
		<rect x="1602.8898926" y="1633" style="fill:#040404;" width="6.8500977" height="17.1253662"/>
		<rect x="1522.4006348" y="1755.8746338" style="fill:#040404;" width="6.8500977" height="17.1253662"/>
		<rect x="1535.2446289" y="1755.8746338" style="fill:#040404;" width="6.8500977" height="17.1253662"/>
		<rect x="1548.9449463" y="1755.8746338" style="fill:#040404;" width="6.8500977" height="17.1253662"/>
		<rect x="1560.9327393" y="1755.8746338" style="fill:#040404;" width="6.8500977" height="17.1253662"/>
		<rect x="1573.3486328" y="1755.8746338" style="fill:#040404;" width="6.8500977" height="17.1253662"/>
		<rect x="1587.4770508" y="1755.8746338" style="fill:#040404;" width="6.8500977" height="17.1253662"/>
		<rect x="1602.8898926" y="1755.8746338" style="fill:#040404;" width="6.8500977" height="17.1253662"/>
		<rect x="1617.8746338" y="1655.2631836" style="fill:#040404;" width="17.1253662" height="6.8500977"/>
		<rect x="1617.8746338" y="1668.5351563" style="fill:#040404;" width="17.1253662" height="6.8500977"/>
		<rect x="1617.8746338" y="1680.5229492" style="fill:#040404;" width="17.1253662" height="6.8500977"/>
		<rect x="1617.8746338" y="1693.3669434" style="fill:#040404;" width="17.1253662" height="6.8500977"/>
		<rect x="1617.8746338" y="1706.2111816" style="fill:#040404;" width="17.1253662" height="6.8500977"/>
		<rect x="1617.8746338" y="1718.6269531" style="fill:#040404;" width="17.1253662" height="6.8500977"/>
		<rect x="1617.8746338" y="1729.7585449" style="fill:#040404;" width="17.1253662" height="6.8500977"/>
		<rect x="1617.8746338" y="1742.6025391" style="fill:#040404;" width="17.1253662" height="6.8500977"/>
		<rect x="1495" y="1655.2630615" style="fill:#040404;" width="17.1253662" height="6.8500977"/>
		<rect x="1495" y="1668.5352783" style="fill:#040404;" width="17.1253662" height="6.8500977"/>
		<rect x="1495" y="1680.5230713" style="fill:#040404;" width="17.1253662" height="6.8500977"/>
		<rect x="1495" y="1693.3670654" style="fill:#040404;" width="17.1253662" height="6.8500977"/>
		<rect x="1495" y="1706.2110596" style="fill:#040404;" width="17.1253662" height="6.8500977"/>
		<rect x="1495" y="1718.6270752" style="fill:#040404;" width="17.1253662" height="6.8500977"/>
		<rect x="1495" y="1729.7584229" style="fill:#040404;" width="17.1253662" height="6.8500977"/>
		<rect x="1495" y="1742.6026611" style="fill:#040404;" width="17.1253662" height="6.8500977"/>
	</g>
	<circle style="fill:#040404;" cx="1451" cy="865" r="44"/>
	<rect x="58" y="455" style="fill:#040404;" width="58" height="170"/>
	<rect x="953" y="1162" style="fill:#040404;" width="62" height="62"/>
	<rect x="1038" y="1174" style="fill:#040404;" width="37" height="37"/>
	<rect x="1098" y="1181" style="fill:#040404;" width="24" height="24"/>
	<polyline style="fill:#040404;" points="1794.1517334,1915.5892334 1875.1517334,1915.5892334 1875.1517334,1947.4107666 
		1794.1517334,1947.4107666 	"/>
	<rect x="1810.7857666" y="1901.8482666" style="fill:#040404;" width="5.0625" height="13.7410889"/>
	<rect x="1820.5490723" y="1901.8482666" style="fill:#040404;" width="5.0625" height="13.7410889"/>
	<rect x="1830.3125" y="1901.8482666" style="fill:#040404;" width="5.0625" height="13.7410889"/>
	<rect x="1849.8392334" y="1901.8482666" style="fill:#040404;" width="5.0625" height="13.7410889"/>
	<rect x="1859.2410889" y="1901.8482666" style="fill:#040404;" width="5.0625" height="13.7410889"/>
	<rect x="1859.2410889" y="1947.4107666" style="fill:#040404;" width="5.0625" height="13.7410889"/>
	<rect x="1840.0759277" y="1901.8482666" style="fill:#040404;" width="5.0625" height="13.7410889"/>
	<rect x="1810.7857666" y="1947.4107666" style="fill:#040404;" width="5.0625" height="13.7410889"/>
	<rect x="1820.5490723" y="1947.4107666" style="fill:#040404;" width="5.0625" height="13.7410889"/>
	<rect x="1830.3125" y="1947.4107666" style="fill:#040404;" width="5.0625" height="13.7410889"/>
	<rect x="1849.8392334" y="1947.4107666" style="fill:#040404;" width="5.0625" height="13.7410889"/>
	<rect x="1840.0759277" y="1947.4107666" style="fill:#040404;" width="5.0625" height="13.7410889"/>
	<circle style="fill:#040404;" cx="122.5" cy="1656.5" r="42.5"/>
	<circle style="fill:#040404;" cx="213" cy="1656" r="31"/>
	<circle style="fill:#040404;" cx="285.5" cy="1655.5" r="21.5"/>
	<ellipse style="fill:#040404;" cx="1063.2568359" cy="1834.4986572" rx="12.0546875" ry="12.5179443"/>
	<ellipse style="fill:#040404;" cx="1101.6533203" cy="1834.4986572" rx="18.3052979" ry="19.0087891"/>
	<ellipse style="fill:#040404;" cx="1153.4439697" cy="1834.4986572" rx="24.5559082" ry="25.4995117"/>
	<g>
		<path style="fill:#040404;" d="M112.7646484,858.706543c0,1.8867188-0.2050781,3.5742188-0.6152344,5.0625
			s-1.0107422,2.7451172-1.8017578,3.7705078s-1.7548828,1.8076172-2.8916016,2.3466797s-2.4375,0.8085938-3.9023438,0.8085938
			c-1.265625,0-2.4316406-0.2226563-3.4980469-0.6679688s-1.9863281-1.1455078-2.7597656-2.1005859
			s-1.3769531-2.1767578-1.8105469-3.6650391s-0.6503906-3.2695313-0.6503906-5.34375
			c0-1.8867188,0.2080078-3.5742188,0.6240234-5.0625s1.0166016-2.7451172,1.8017578-3.7705078
			s1.7519531-1.8076172,2.9003906-2.3466797s2.4492188-0.8085938,3.9023438-0.8085938
			c1.265625,0,2.4316406,0.2226563,3.4980469,0.6679688s1.9833984,1.1425781,2.7509766,2.0917969
			s1.3681641,2.1679688,1.8017578,3.65625S112.7646484,856.6206055,112.7646484,858.706543z M99.1591797,858.7768555
			c0,0.234375,0,0.4541016,0,0.6591797s0.0117188,0.4130859,0.0351563,0.6240234l8.6132813-6.2226563
			c-0.4101563-1.1601563-0.9521484-2.0185547-1.6259766-2.5751953s-1.4677734-0.8349609-2.3818359-0.8349609
			c-0.65625,0-1.265625,0.1669922-1.828125,0.5009766s-1.0517578,0.8466797-1.4677734,1.5380859
			s-0.7441406,1.5585938-0.984375,2.6015625S99.1591797,857.347168,99.1591797,858.7768555z M108.4404297,858.847168
			c0-0.1992188-0.0058594-0.4013672-0.0175781-0.6064453s-0.0175781-0.4013672-0.0175781-0.5888672l-8.5605469,6.1875
			c0.375,1.1367188,0.9023438,1.9804688,1.5820313,2.53125s1.4707031,0.8261719,2.3730469,0.8261719
			c0.65625,0,1.2685547-0.1699219,1.8369141-0.5097656s1.0605469-0.8525391,1.4765625-1.5380859
			s0.7412109-1.5527344,0.9755859-2.6015625S108.4404297,860.2651367,108.4404297,858.847168z"/>
		<path style="fill:#040404;" d="M96.5751953,913.4907227v-3.8144531h5.8535156v-14.765625l-5.0976563,2.8125l-1.40625-3.4980469
			l7.2949219-3.8496094h3.6035156v19.3007813h5.0449219v3.8144531H96.5751953z"/>
		<path style="fill:#040404;" d="M96.5751953,956.6904297v-3.8144531h5.8535156v-14.765625l-5.0976563,2.8125l-1.40625-3.4980469
			l7.2949219-3.8496094h3.6035156v19.3007813h5.0449219v3.8144531H96.5751953z"/>
		<path style="fill:#040404;" d="M112.7646484,988.3066406c0,1.8867188-0.2050781,3.5742188-0.6152344,5.0625
			s-1.0107422,2.7451172-1.8017578,3.7705078s-1.7548828,1.8076172-2.8916016,2.3466797s-2.4375,0.8085938-3.9023438,0.8085938
			c-1.265625,0-2.4316406-0.2226563-3.4980469-0.6679688s-1.9863281-1.1455078-2.7597656-2.1005859
			s-1.3769531-2.1767578-1.8105469-3.6650391s-0.6503906-3.2695313-0.6503906-5.34375
			c0-1.8867188,0.2080078-3.5742188,0.6240234-5.0625s1.0166016-2.7451172,1.8017578-3.7705078
			s1.7519531-1.8076172,2.9003906-2.3466797s2.4492188-0.8085938,3.9023438-0.8085938
			c1.265625,0,2.4316406,0.2226563,3.4980469,0.6679688s1.9833984,1.1425781,2.7509766,2.0917969
			s1.3681641,2.1679688,1.8017578,3.65625S112.7646484,986.2207031,112.7646484,988.3066406z M99.1591797,988.3769531
			c0,0.234375,0,0.4541016,0,0.6591797s0.0117188,0.4130859,0.0351563,0.6240234l8.6132813-6.2226563
			c-0.4101563-1.1601563-0.9521484-2.0185547-1.6259766-2.5751953s-1.4677734-0.8349609-2.3818359-0.8349609
			c-0.65625,0-1.265625,0.1669922-1.828125,0.5009766s-1.0517578,0.8466797-1.4677734,1.5380859
			s-0.7441406,1.5585938-0.984375,2.6015625S99.1591797,986.9472656,99.1591797,988.3769531z M108.4404297,988.4472656
			c0-0.1992188-0.0058594-0.4013672-0.0175781-0.6064453s-0.0175781-0.4013672-0.0175781-0.5888672l-8.5605469,6.1875
			c0.375,1.1367188,0.9023438,1.9804688,1.5820313,2.53125s1.4707031,0.8261719,2.3730469,0.8261719
			c0.65625,0,1.2685547-0.1699219,1.8369141-0.5097656s1.0605469-0.8525391,1.4765625-1.5380859
			s0.7412109-1.5527344,0.9755859-2.6015625S108.4404297,989.8652344,108.4404297,988.4472656z"/>
		<path style="fill:#040404;" d="M96.5751953,1043.0908203v-3.8144531h5.8535156v-14.765625l-5.0976563,2.8125l-1.40625-3.4980469
			l7.2949219-3.8496094h3.6035156v19.3007813h5.0449219v3.8144531H96.5751953z"/>
		<path style="fill:#040404;" d="M96.5751953,1086.2910156v-3.8144531h5.8535156v-14.765625l-5.0976563,2.8125l-1.40625-3.4980469
			l7.2949219-3.8496094h3.6035156v19.3007813h5.0449219v3.8144531H96.5751953z"/>
		<path style="fill:#040404;" d="M96.5751953,1129.4902344v-3.8144531h5.8535156v-14.765625l-5.0976563,2.8125l-1.40625-3.4980469
			l7.2949219-3.8496094h3.6035156v19.3007813h5.0449219v3.8144531H96.5751953z"/>
	</g>
	<circle style="fill:#040404;" cx="865.5" cy="270.5" r="13.5"/>
	<circle style="fill:#040404;" cx="908.5" cy="270.5" r="20.5"/>
	<circle style="fill:#040404;" cx="966.5" cy="270.5" r="27.5"/>
	<rect x="1386" y="120" style="fill:#040404;" width="25" height="46"/>
	<rect x="1422" y="141" style="fill:#040404;" width="20.6522217" height="38"/>
	<rect x="1451" y="166.5599976" style="fill:#040404;" width="16" height="29.4400024"/>
</g>
<g>
	<polyline style="fill:none;stroke:#040404;stroke-width:6;stroke-miterlimit:10;" points="87,77 375,77 375,309 623,309 	"/>
	<circle style="fill:none;stroke:#040404;stroke-width:6;stroke-miterlimit:10;" cx="69" cy="77" r="21"/>
	<circle style="fill:none;stroke:#040404;stroke-width:6;stroke-miterlimit:10;" cx="642" cy="309" r="21"/>
	<polyline style="fill:none;stroke:#040404;stroke-width:6;stroke-miterlimit:10;" points="667,137 888,137 1057,137 	"/>
	<rect x="633" y="120" style="fill:none;stroke:#040404;stroke-width:6;stroke-miterlimit:10;" width="34" height="34"/>
	<rect x="1055" y="120" style="fill:none;stroke:#040404;stroke-width:6;stroke-miterlimit:10;" width="34" height="34"/>
	<line style="fill:none;stroke:#040404;stroke-width:6;stroke-miterlimit:10;" x1="1303" y1="77" x2="1303" y2="436"/>
	<circle style="fill:none;stroke:#040404;stroke-width:6;stroke-miterlimit:10;" cx="1302" cy="61" r="18"/>
	<polyline style="fill:none;stroke:#040404;stroke-width:6;stroke-miterlimit:10;" points="1506,357 1593,357 1593,223 1783,223 
		1783,316 1940,316 1940,49 1982,49 1982,579 1862,579 1862,686 1937,686 1937,765 1804,765 1804,947 1982,947 1982,985 1495,985 	
		"/>
	<circle style="fill:none;stroke:#040404;stroke-width:6;stroke-miterlimit:10;" cx="1451" cy="742" r="44"/>
	<circle style="fill:none;stroke:#040404;stroke-width:6;stroke-miterlimit:10;" cx="1451" cy="982" r="44"/>
	<polyline style="fill:none;stroke:#040404;stroke-width:6;stroke-miterlimit:10;" points="1407,742 1088,742 1088,804 920,804 	"/>
	<polyline style="fill:none;stroke:#040404;stroke-width:6;stroke-miterlimit:10;" points="920,977 989,977 989,1038 1212,1038 
		1212,1197 1507,1197 1507,1124 1451,1124 1451,1026 	"/>
	<polyline style="fill:none;stroke:#040404;stroke-width:6;stroke-miterlimit:10;" points="920,892 1291,892 1291,865 1420,865 	"/>
	<polyline style="fill:none;stroke:#040404;stroke-width:6;stroke-miterlimit:10;" points="445.6451721,309 445.6451721,463 
		665,463 665,713 	"/>
	<polyline style="fill:none;stroke:#040404;stroke-width:6;stroke-miterlimit:10;" points="853,713 853,477 939,477 939,343 
		1303,343 	"/>
	<polyline style="fill:none;stroke:#040404;stroke-width:6;stroke-miterlimit:10;" points="1681.2580566,223 1681.2580566,742 
		1495,742 	"/>
	<line style="fill:none;stroke:#040404;stroke-width:6;stroke-miterlimit:10;" x1="1448.5" y1="398" x2="1448.5" y2="698"/>
	<polyline style="fill:none;stroke:#040404;stroke-width:6;stroke-miterlimit:10;" points="506.0322571,463 506.0322571,540 90,540 
			"/>
	<polyline style="fill:none;stroke:#040404;stroke-width:6;stroke-miterlimit:10;" points="593,865 326,865 326,1213 130,1213 	"/>
	<rect x="76" y="1187" style="fill:none;stroke:#040404;stroke-width:6;stroke-miterlimit:10;" width="54" height="54"/>
	<polyline style="fill:none;stroke:#040404;stroke-width:6;stroke-miterlimit:10;" points="87,773 508,773 593,773 	"/>
	<circle style="fill:none;stroke:#040404;stroke-width:6;stroke-miterlimit:10;" cx="64.5" cy="772.5" r="22.5"/>
	<polyline style="fill:none;stroke:#040404;stroke-width:6;stroke-miterlimit:10;" points="853,1040 853,1338 1459,1338 1459,1279 
		1856,1279 1856,1128 1681,1128 	"/>
	<circle style="fill:none;stroke:#040404;stroke-width:6;stroke-miterlimit:10;" cx="1658" cy="1127" r="24"/>
	<polyline style="fill:none;stroke:#040404;stroke-width:6;stroke-miterlimit:10;" points="727,1039 727,1246 584,1246 584,1158 	
		"/>
	<rect x="572" y="1133" style="fill:none;stroke:#040404;stroke-width:6;stroke-miterlimit:10;" width="23" height="23"/>
	<polyline style="fill:none;stroke:#040404;stroke-width:6;stroke-miterlimit:10;" points="420,1020 420,1338 673,1338 673,1405 
		1057,1405 	"/>
	<circle style="fill:none;stroke:#040404;stroke-width:6;stroke-miterlimit:10;" cx="420.5" cy="999.5" r="18.5"/>
	<circle style="fill:none;stroke:#040404;stroke-width:6;stroke-miterlimit:10;" cx="1075.5" cy="1405.5" r="18.5"/>
	<polyline style="fill:none;stroke:#040404;stroke-width:6;stroke-miterlimit:10;" points="1202,1405 1451,1405 1451,1462 
		1658,1462 1658,1405 1941,1405 1941,1283 	"/>
	<rect x="1153" y="1380" style="fill:none;stroke:#040404;stroke-width:6;stroke-miterlimit:10;" width="49" height="49"/>
	<rect x="1917" y="1234" style="fill:none;stroke:#040404;stroke-width:6;stroke-miterlimit:10;" width="49" height="49"/>
	<line style="fill:none;stroke:#040404;stroke-width:6;stroke-miterlimit:10;" x1="1122" y1="1472" x2="1122" y2="1759"/>
	<polygon style="fill:none;stroke:#040404;stroke-width:6;stroke-miterlimit:10;" points="1140.0968018,1471.7741699 
		1121.8588867,1471.5296631 1103.6208496,1471.2851563 1112.9516602,1455.612915 1122.2823486,1439.9406738 
		1131.1895752,1455.8574219 	"/>
	<polygon style="fill:none;stroke:#040404;stroke-width:6;stroke-miterlimit:10;" points="1103.40625,1759 1121.645874,1759 
		1139.885376,1759 1130.765625,1774.7958984 1121.645874,1790.5919189 1112.526001,1774.7958984 	"/>
	<polyline style="fill:none;stroke:#040404;stroke-width:6;stroke-miterlimit:10;" points="76,1919 180,1919 180,1775 325,1775 
		325,1879 536,1879 536,1722 	"/>
	<rect x="505" y="1661" style="fill:none;stroke:#040404;stroke-width:6;stroke-miterlimit:10;" width="61" height="61"/>
	<rect x="24" y="1893" style="fill:none;stroke:#040404;stroke-width:6;stroke-miterlimit:10;" width="52" height="52"/>
	<polyline style="fill:none;stroke:#040404;stroke-width:6;stroke-miterlimit:10;" points="76,1519 719,1519 719,1632 
		1121.645874,1632 1253,1632 1253,1710 1498,1710 	"/>
	<circle style="fill:none;stroke:#040404;stroke-width:6;stroke-miterlimit:10;" cx="54" cy="1519" r="22"/>
	<polyline style="fill:none;stroke:#040404;stroke-width:6;stroke-miterlimit:10;" points="853,1632 853,1519 932,1519 932,1456 	
		"/>
	<rect x="893" y="1429" style="fill:none;stroke:#040404;stroke-width:6;stroke-miterlimit:10;" width="78" height="24"/>
	<polyline style="fill:none;stroke:#040404;stroke-width:6;stroke-miterlimit:10;" points="622.1613159,1519 622.1613159,1701 
		695,1701 695,1750 952,1750 952,1726 	"/>
	<circle style="fill:none;stroke:#040404;stroke-width:6;stroke-miterlimit:10;" cx="951" cy="1709" r="17"/>
	
		<line style="fill:none;stroke:#040404;stroke-width:6;stroke-miterlimit:10;" x1="951.1290283" y1="1632" x2="952.1290283" y2="1690"/>
	
		<line style="fill:none;stroke:#040404;stroke-width:6;stroke-miterlimit:10;" x1="1682.1517334" y1="1931.0095215" x2="1796.1517334" y2="1931.0095215"/>
	<polyline style="fill:none;stroke:#040404;stroke-width:6;stroke-miterlimit:10;" points="1538.6696777,1633 1538.6696777,1562 
		1498,1562 1498,1462 	"/>
	<polyline style="fill:none;stroke:#040404;stroke-width:6;stroke-miterlimit:10;" points="1268,1505 1355,1505 1355,1622 
		1397,1622 	"/>
	<polygon style="fill:none;stroke:#040404;stroke-width:6;stroke-miterlimit:10;" points="1268,1518.9838867 1268,1487.0161133 
		1237.5968018,1477.1374512 1218.8065186,1503 1237.5968018,1528.8625488 	"/>
	<polygon style="fill:none;stroke:#040404;stroke-width:6;stroke-miterlimit:10;" points="1427.4031982,1649.8625488 
		1446.1934814,1624 1427.4031982,1598.1374512 1397,1608.0161133 1397,1639.9838867 	"/>
	<polyline style="fill:none;stroke:#040404;stroke-width:6;stroke-miterlimit:10;" points="763,137 763,270 854,270 	"/>
	<polyline style="fill:none;stroke:#040404;stroke-width:6;stroke-miterlimit:10;" points="642,284 642,191 650,191 650,154 	"/>
	<polyline style="fill:none;stroke:#040404;stroke-width:6;stroke-miterlimit:10;" points="1165,1961 944,1961 775,1961 	"/>
	<rect x="1165" y="1944" style="fill:none;stroke:#040404;stroke-width:6;stroke-miterlimit:10;" width="34" height="34"/>
	<rect x="743" y="1944" style="fill:none;stroke:#040404;stroke-width:6;stroke-miterlimit:10;" width="34" height="34"/>
	<polyline style="fill:none;stroke:#040404;stroke-width:6;stroke-miterlimit:10;" points="957.9987183,1958.2872314 
		957.9987183,1834.9622803 1032.847168,1834.9622803 	"/>
	<line style="fill:none;stroke:#040404;stroke-width:6;stroke-miterlimit:10;" x1="667" y1="534" x2="852" y2="534"/>
	<polyline style="fill:none;stroke:#040404;stroke-width:6;stroke-miterlimit:10;" points="1303,477 1303,599 967,599 967,773 
		894,773 	"/>
	<polyline style="fill:none;stroke:#040404;stroke-width:6;stroke-miterlimit:10;" points="1564.3577881,1773 1564.3577881,1972 
		1660,1972 1660,1931 1682,1931 1682,1873 1816,1873 1816,1655 1903,1655 1903,1404.5 	"/>
	<line style="fill:none;stroke:#040404;stroke-width:6;stroke-miterlimit:10;" x1="1319" y1="1708" x2="1319" y2="1860"/>
	<rect x="1292" y="1860" style="fill:none;stroke:#040404;stroke-width:6;stroke-miterlimit:10;" width="55" height="55"/>
	
		<line style="fill:none;stroke:#040404;stroke-width:6;stroke-miterlimit:10;" x1="286.1612854" y1="1519" x2="286.1612854" y2="1405"/>
	<circle style="fill:none;stroke:#040404;stroke-width:6;stroke-miterlimit:10;" cx="1302.5" cy="455.5" r="21.5"/>
</g>
</svg>
