<?xml version="1.0" standalone="no"?>
<!DOCTYPE svg PUBLIC "-//W3C//DTD SVG 20010904//EN"
 "http://www.w3.org/TR/2001/REC-SVG-20010904/DTD/svg10.dtd">
<svg version="1.0" xmlns="http://www.w3.org/2000/svg"
 width="700.000000pt" height="700.000000pt" viewBox="0 0 700.000000 700.000000"
 preserveAspectRatio="xMidYMid meet">
<metadata>
Created by potrace 1.14, written by Peter Selinger 2001-2017
</metadata>
<g transform="translate(0.000000,700.000000) scale(0.100000,-0.100000)"
fill="#000000" stroke="none">
<path d="M2228 6734 c-2 -1 -18 -5 -36 -9 -162 -28 -326 -155 -403 -310 -22
-44 -42 -93 -45 -109 -3 -16 -7 -33 -9 -37 -3 -3 -7 -41 -10 -82 -17 -240 122
-472 343 -573 164 -75 361 -68 525 18 79 42 192 155 234 233 181 342 -2 762
-372 855 -45 12 -219 23 -227 14z"/>
<path d="M550 5052 l0 -88 3050 1 3050 0 0 87 0 88 -3050 0 -3050 0 0 -88z"/>
<path d="M3421 4429 c-44 -9 -117 -55 -145 -92 -14 -18 -35 -55 -47 -83 -21
-46 -23 -65 -24 -279 -2 -247 5 -293 50 -365 13 -20 38 -49 57 -65 67 -57 80
-59 370 -60 148 -1 271 -4 274 -8 4 -3 6 -550 6 -1214 1 -1303 -1 -1257 52
-1342 35 -54 111 -120 174 -149 l57 -27 315 0 315 0 58 27 c103 49 188 152
216 263 6 25 9 487 9 1238 0 659 3 1201 6 1204 3 3 126 7 273 7 259 1 270 2
315 25 61 29 122 99 145 164 15 44 18 87 17 282 0 159 -4 244 -13 276 -20 70
-77 139 -145 173 l-57 30 -1124 0 c-618 1 -1137 -2 -1154 -5z"/>
<path d="M2035 4418 c-150 -19 -286 -147 -311 -293 -4 -22 -8 -733 -8 -1580
l-1 -1540 28 -56 c32 -65 106 -143 162 -172 73 -37 129 -43 410 -42 229 1 278
4 326 19 109 35 202 131 236 245 16 51 17 179 18 1561 0 828 -3 1527 -7 1554
-21 142 -147 276 -283 302 -51 9 -496 11 -570 2z"/>
<path d="M550 378 l0 -88 3050 0 3050 0 0 88 0 89 -3050 0 -3050 0 0 -89z"/>
</g>
</svg>
