<?xml version="1.0" encoding="utf-8"?>
<!-- Generator: Adobe Illustrator 23.1.0, SVG Export Plug-In . SVG Version: 6.00 Build 0)  -->
<svg version="1.1" id="Слой_1" xmlns="http://www.w3.org/2000/svg" xmlns:xlink="http://www.w3.org/1999/xlink" x="0px" y="0px"
	 viewBox="0 0 300 50" style="enable-background:new 0 0 300 50;" xml:space="preserve">
<path id="Полоска" style="fill:#FFFFFF;" d="M296,21c0-4.9624023-4.0371094-9-9-9s-9,4.0375977-9,9
	c0,4.0943604,2.7509766,7.5525513,6.5,8.6394043V32.5h-31v-13h-96v17h-117v-26H24V6H7v17h17v-7.5h11.5v26h127v-17h86v13h41
	v-7.8605957C293.2490234,28.5525513,296,25.0943604,296,21z M19,18h-7v-7h7V18z M287,25c-2.2060547,0-4-1.7944336-4-4
	s1.7939453-4,4-4s4,1.7944336,4,4S289.2060547,25,287,25z"/>
</svg>
