<?xml version="1.0" encoding="utf-8"?>
<!-- Generator: Adobe Illustrator 23.1.0, SVG Export Plug-In . SVG Version: 6.00 Build 0)  -->
<svg version="1.1" id="Слой_2" xmlns="http://www.w3.org/2000/svg" xmlns:xlink="http://www.w3.org/1999/xlink" x="0px" y="0px"
	 viewBox="0 0 400 150" style="enable-background:new 0 0 400 150;" xml:space="preserve">
<path style="fill:#FFFFFF;" d="M372.5,51c-12.6658936,0-23.1171265,9.6605835-24.3734131,22H54.8734131
	C53.6171265,60.6605835,43.1654053,51,30.5,51C16.9907227,51,6,61.9907227,6,75.5C6,89.0097656,16.9907227,100,30.5,100
	c12.6654663,0,23.1171265-9.6602173,24.3734131-22h293.2531738c1.2561646,12.3397827,11.7075195,22,24.3734131,22
	c13.5097656,0,24.5-10.9902344,24.5-24.5C397,61.9907227,386.0097656,51,372.5,51z M30.5,95C19.7475586,95,11,86.2519531,11,75.5
	C11,64.7475586,19.7475586,56,30.5,56S50,64.7475586,50,75.5C50,86.2519531,41.2524414,95,30.5,95z M372.5,95
	c-10.7519531,0-19.5-8.7480469-19.5-19.5c0-10.7524414,8.7480469-19.5,19.5-19.5S392,64.7475586,392,75.5
	C392,86.2519531,383.2519531,95,372.5,95z"/>
</svg>
