<?xml version="1.0" encoding="utf-8"?>
<!-- Generator: Adobe Illustrator 23.1.0, SVG Export Plug-In . SVG Version: 6.00 Build 0)  -->
<svg version="1.1" id="Слой_1" xmlns="http://www.w3.org/2000/svg" xmlns:xlink="http://www.w3.org/1999/xlink" x="0px" y="0px"
	 viewBox="0 0 256 256" style="enable-background:new 0 0 256 256;" xml:space="preserve">
<g>
	<path style="fill:#FFFFFF;" d="M127.9997482,23.06353c34.1776352,0,38.2256393,0.1300735,51.7227249,0.7458858
		c12.4798737,0.5695763,19.2573853,2.6548061,23.7682648,4.4072323c5.9741974,2.3220024,10.2386627,5.0962105,14.7175293,9.5750847
		s7.2530823,8.7433281,9.5745697,14.7175293c1.7529449,4.5108833,3.8381653,11.2883873,4.4077454,23.7677536
		c0.6158142,13.4975891,0.7458801,17.5456009,0.7458801,51.7232437s-0.1300659,38.225647-0.7458801,51.7227173
		c-0.5695801,12.4798889-2.6548004,19.2573853-4.4077454,23.7682648
		c-2.3214874,5.9741974-5.0957031,10.2386627-9.5745697,14.7175293c-4.4788666,4.4788818-8.7433319,7.2530823-14.7175293,9.574585
		c-4.5108795,1.7529297-11.2883911,3.8381653-23.7682648,4.4077301
		c-13.4950409,0.6158142-17.5430603,0.7458954-51.7227249,0.7458954s-38.227684-0.1300812-51.7227325-0.7458954
		c-12.4798737-0.5695648-19.2573776-2.6548004-23.7677536-4.4077301c-5.9747086-2.3215027-10.2391663-5.0957031-14.7180367-9.574585
		c-4.4788742-4.4788666-7.2530842-8.7433319-9.5745773-14.7175293c-1.7529335-4.5108795-3.8381634-11.2883759-4.4077396-23.767746
		c-0.6158142-13.4975891-0.7458858-17.5456085-0.7458858-51.7232361s0.1300716-38.2256546,0.7458858-51.7227325
		c0.5695763-12.4798775,2.6548061-19.2573814,4.4077396-23.7682648c2.3214931-5.9742012,5.0957031-10.2386551,9.5745773-14.7175293
		s8.7433281-7.2530823,14.7180367-9.5750847c4.510376-1.7524261,11.2878799-3.837656,23.7672424-4.4072323
		C89.7741013,23.1936035,93.8221054,23.06353,127.9997482,23.06353 M127.9997482,0
		c-34.76297,0-39.1214218,0.1473481-52.7739868,0.7702748C61.6011467,1.3921852,52.2968788,3.5556614,44.1546288,6.7200885
		c-8.4171333,3.2711272-15.5553837,7.6478724-22.6712799,14.7637672S9.9907074,35.7380028,6.7195802,44.1551361
		c-3.1644268,8.1422501-5.3279028,17.4465218-5.9498134,31.0711365C0.14684,88.8783264,0,93.2372894,0,128.0002594
		s0.14684,39.1219177,0.7697666,52.7739716c0.6219105,13.6246185,2.7853868,22.928894,5.9498134,31.0711365
		c3.2711272,8.416626,7.6478734,15.5553894,14.7637691,22.6712799c7.1158962,7.1159058,14.2541466,11.4926453,22.6712799,14.7637787
		c8.1422501,3.1644135,17.4465179,5.3278961,31.0711327,5.9498138C88.8783264,255.8531647,93.2367783,256,127.9997482,256
		s39.1219254-0.1468353,52.7739792-0.7697601c13.6246185-0.6219177,22.9288788-2.7854004,31.0711365-5.9498138
		c8.4171295-3.2711334,15.5553894-7.6478729,22.6712799-14.7637787
		c7.1158905-7.1158905,11.4926453-14.2541504,14.7637634-22.6712799c3.1644287-8.1422424,5.3279114-17.4465179,5.9498138-31.0711365
		C255.8526459,167.1221771,256,162.7632141,256,128.0002594s-0.1473541-39.121933-0.7702789-52.7739868
		c-0.6219025-13.6246147-2.7853851-22.9288864-5.9498138-31.0711365
		c-3.2711182-8.4171333-7.6478729-15.5553837-14.7637634-22.6712799S220.2619934,9.9912157,211.8448639,6.7200885
		c-8.1422577-3.164427-17.4465179-5.3279033-31.0711365-5.9498138C167.1216736,0.1473481,162.7627106,0,127.9997482,0z
		 M127.9997482,62.2703133c-36.3014832,0-65.72995,29.4284554-65.72995,65.72995s29.428463,65.7299347,65.72995,65.7299347
		s65.7299423-29.4284515,65.7299423-65.7299347S164.3012238,62.2703133,127.9997482,62.2703133z M127.9997482,170.6671753
		c-23.5640106,0-42.6669235-19.1029205-42.6669235-42.6669159s19.1029129-42.6669235,42.6669235-42.6669235
		s42.6669235,19.1029129,42.6669235,42.6669235S151.5637512,170.6671753,127.9997482,170.6671753z M211.6863403,59.6734276
		c0,8.4831886-6.8765869,15.3602791-15.3597717,15.3602791s-15.3602753-6.8770905-15.3602753-15.3602791
		s6.8770905-15.3597641,15.3602753-15.3597641S211.6863403,51.1902428,211.6863403,59.6734276z"/>
</g>
</svg>
