<?xml version="1.0" encoding="utf-8"?>
<!-- Generator: Adobe Illustrator 23.1.0, SVG Export Plug-In . SVG Version: 6.00 Build 0)  -->
<svg version="1.1" id="Capa_1" xmlns="http://www.w3.org/2000/svg" xmlns:xlink="http://www.w3.org/1999/xlink" x="0px" y="0px"
	 viewBox="0 0 414.9370117 414.9370117" style="enable-background:new 0 0 414.9370117 414.9370117;" xml:space="preserve">
<g>
	<path style="fill:#FFFFFF;" d="M159.1380005,256.4519958c37.2169952,36.9440002,80.2949982,72.2359924,97.2070007,55.1950073
		c24.2149963-24.3919983,39.1199951-45.6139832,92.8540039-2.7609863
		c53.7340088,42.8739929,12.6960144,71.7269897-10.7569885,95.3630066
		c-27.0639954,27.2690125-128.4320068,1.9110107-228.9089966-97.8040161
		C9.0620003,206.7100067-17.0699997,105.5400009,10.0139999,78.2580032
		c23.4599991-23.637001,52.0060005-64.8789978,95.2539978-11.4580002
		c43.2690048,53.3939972,22.1610031,68.4619904-2.0540009,92.8610077
		C86.3099976,176.6950073,121.9150009,219.5010071,159.1380005,256.4519958z M213.1040039,80.2030029
		c0,0-11.227005-1.7539978-19.0879974,6.112999c-8.0919952,8.0920029-8.4449921,22.0319977,0.0820007,30.552002
		c5.0390015,5.0390015,12.1450043,6.112999,12.1450043,6.112999c13.852005,2.5979996,34.7279968,6.996994,56.9440002,29.2059937
		c22.2089844,22.2079926,26.6080017,43.0839996,29.2059937,56.9430084c0,0,1.0740051,7.1060028,6.1130066,12.1450043
		c8.5209961,8.5209961,22.4599915,8.173996,30.552002,0.0820007c7.8609924-7.8600006,6.1130066-19.0870056,6.1130066-19.0870056
		c-4.3989868-28.0569916-17.9989929-57.3650055-41.3510132-80.7160034
		C270.4620056,98.2030029,241.1529999,84.6090012,213.1040039,80.2030029z M318.4150085,96.9580002
		c40.7189941,40.7190018,58.07901,86.9319992,52.428009,124.3790054c0,0-1.9719849,11.8589935,5.7730103,19.6040039
		c8.7179871,8.7180023,22.5350037,8.2149963,30.6950073,0.0619965c5.2430115-5.2429962,6.3850098-13.7769928,6.3850098-13.7769928
		c4.6719971-32.3609924-1.2030029-97.4639893-64.6470032-160.901001C285.605011,2.8870001,220.5090027-2.9879999,188.1470032,1.677
		c0,0-8.5270081,1.1360002-13.7770081,6.3850002c-8.1600037,8.1599998-8.6560059,21.9780006,0.0610046,30.6949997
		c7.7460022,7.7459984,19.6040039,5.7729988,19.6040039,5.7729988
		C231.4839935,38.8790016,277.6960144,56.2400017,318.4150085,96.9580002z"/>
</g>
</svg>
