<?xml version="1.0" encoding="utf-8"?>
<!-- Generator: Adobe Illustrator 23.1.0, SVG Export Plug-In . SVG Version: 6.00 Build 0)  -->
<svg version="1.1" id="График" xmlns="http://www.w3.org/2000/svg" xmlns:xlink="http://www.w3.org/1999/xlink" x="0px"
	 y="0px" viewBox="0 0 400 150" style="enable-background:new 0 0 400 150;" xml:space="preserve">
<g>
	<path style="fill:#FFFFFF;" d="M47.7963562,80.8924942h6.8761787v-1.4955826h-6.8761787v-5.0099182H43.657505v-6.882309h-1.4955826
		v6.882309H32.766037V67.374115h-1.4955845v7.0128784h-5.0100594v5.0099182h-6.713768v1.4955826h6.713768v8.96035H19.296875
		v1.4955902h6.9635181v4.574379h5.0100594v6.9316788h1.4955845v-6.9316788h9.3958855v6.8443375h1.4955826v-6.8443375h4.1388512
		v-4.873497h6.9256897v-1.4955826h-6.9256897V80.8924942z M46.3007736,94.4272308h-18.544796V75.882576h18.544796V94.4272308z"/>
	<polygon style="fill:#FFFFFF;" points="100.2933807,80.8924942 107.1697083,80.8924942 107.1697083,79.3969116 
		100.2933807,79.3969116 100.2933807,74.3869934 96.1545258,74.3869934 96.1545258,67.5046844 94.6589432,67.5046844 
		94.6589432,74.3869934 85.2630615,74.3869934 85.2630615,67.374115 83.7674789,67.374115 83.7674789,74.3869934 
		78.7574158,74.3869934 78.7574158,79.3969116 72.0436478,79.3969116 72.0436478,80.8924942 78.7574158,80.8924942 
		78.7574158,89.8528442 71.7940445,89.8528442 71.7940445,91.3484344 78.7574158,91.3484344 78.7574158,95.9228134 
		83.7674789,95.9228134 83.7674789,102.8544922 85.2630615,102.8544922 85.2630615,95.9228134 94.6589432,95.9228134 
		94.6589432,102.7671509 96.1545258,102.7671509 96.1545258,95.9228134 100.2933807,95.9228134 100.2933807,91.3484344 
		107.2190704,91.3484344 107.2190704,89.8528442 100.2933807,89.8528442 	"/>
	<polygon style="fill:#FFFFFF;" points="152.7904053,80.8924942 159.6667328,80.8924942 159.6667328,79.3969116 
		152.7904053,79.3969116 152.7904053,74.3869934 148.6517029,74.3869934 148.6517029,67.5046844 147.1561127,67.5046844 
		147.1561127,74.3869934 137.7602234,74.3869934 137.7602234,67.374115 136.2646484,67.374115 136.2646484,74.3869934 
		131.2544403,74.3869934 131.2544403,79.3969116 124.5408173,79.3969116 124.5408173,80.8924942 131.2544403,80.8924942 
		131.2544403,89.8528442 124.291069,89.8528442 124.291069,91.3484344 131.2544403,91.3484344 131.2544403,95.9228134 
		136.2646484,95.9228134 136.2646484,102.8544922 137.7602234,102.8544922 137.7602234,95.9228134 147.1561127,95.9228134 
		147.1561127,102.7671509 148.6517029,102.7671509 148.6517029,95.9228134 152.7904053,95.9228134 152.7904053,91.3484344 
		159.716095,91.3484344 159.716095,89.8528442 152.7904053,89.8528442 	"/>
	<polygon style="fill:#FFFFFF;" points="205.2875824,80.8924942 212.1637573,80.8924942 212.1637573,79.3969116 
		205.2875824,79.3969116 205.2875824,74.3869934 201.1487274,74.3869934 201.1487274,67.5046844 199.6531372,67.5046844 
		199.6531372,74.3869934 190.2572479,74.3869934 190.2572479,67.374115 188.761673,67.374115 188.761673,74.3869934 
		183.7514648,74.3869934 183.7514648,79.3969116 177.0379944,79.3969116 177.0379944,80.8924942 183.7514648,80.8924942 
		183.7514648,89.8528442 176.7882385,89.8528442 176.7882385,91.3484344 183.7514648,91.3484344 183.7514648,95.9228134 
		188.761673,95.9228134 188.761673,102.8544922 190.2572479,102.8544922 190.2572479,95.9228134 199.6531372,95.9228134 
		199.6531372,102.7671509 201.1487274,102.7671509 201.1487274,95.9228134 205.2875824,95.9228134 205.2875824,91.3484344 
		212.2131195,91.3484344 212.2131195,89.8528442 205.2875824,89.8528442 	"/>
	<polygon style="fill:#FFFFFF;" points="257.7846069,89.8528442 257.7846069,80.8924942 264.6607666,80.8924942 
		264.6607666,79.3969116 257.7846069,79.3969116 257.7846069,74.3869934 253.645752,74.3869934 253.645752,67.5046844 
		252.1501617,67.5046844 252.1501617,74.3869934 242.7542725,74.3869934 242.7542725,67.374115 241.2586975,67.374115 
		241.2586975,74.3869934 236.2487793,74.3869934 236.2487793,79.3969116 229.5350189,79.3969116 229.5350189,80.8924942 
		236.2487793,80.8924942 236.2487793,89.8528442 229.2852631,89.8528442 229.2852631,91.3484344 236.2487793,91.3484344 
		236.2487793,95.9228134 241.2586975,95.9228134 241.2586975,102.8544922 242.7542725,102.8544922 242.7542725,95.9228134 
		252.1501617,95.9228134 252.1501617,102.7671509 253.645752,102.7671509 253.645752,95.9228134 257.7846069,95.9228134 
		257.7846069,91.3484344 264.710144,91.3484344 264.710144,89.8528442 	"/>
	<polygon style="fill:#FFFFFF;" points="310.2816162,89.8528442 310.2816162,80.8924942 317.1578064,80.8924942 
		317.1578064,79.3969116 310.2816162,79.3969116 310.2816162,74.3869934 306.1427612,74.3869934 306.1427612,67.5046844 
		304.6471863,67.5046844 304.6471863,74.3869934 295.2513123,74.3869934 295.2513123,67.374115 293.7557068,67.374115 
		293.7557068,74.3869934 288.7458191,74.3869934 288.7458191,79.3969116 282.0320435,79.3969116 282.0320435,80.8924942 
		288.7458191,80.8924942 288.7458191,89.8528442 281.7822876,89.8528442 281.7822876,91.3484344 288.7458191,91.3484344 
		288.7458191,95.9228134 293.7557068,95.9228134 293.7557068,102.8544922 295.2513123,102.8544922 295.2513123,95.9228134 
		304.6471863,95.9228134 304.6471863,102.7671509 306.1427612,102.7671509 306.1427612,95.9228134 310.2816162,95.9228134 
		310.2816162,91.3484344 317.2071533,91.3484344 317.2071533,89.8528442 	"/>
	<polygon style="fill:#FFFFFF;" points="362.778656,89.8528442 362.778656,80.8924942 369.6548157,80.8924942 
		369.6548157,79.3969116 362.778656,79.3969116 362.778656,74.3869934 358.6400757,74.3869934 358.6400757,67.5046844 
		357.1445007,67.5046844 357.1445007,74.3869934 347.7483215,74.3869934 347.7483215,67.374115 346.2527466,67.374115 
		346.2527466,74.3869934 341.2428284,74.3869934 341.2428284,79.3969116 334.5290527,79.3969116 334.5290527,80.8924942 
		341.2428284,80.8924942 341.2428284,89.8528442 334.2792969,89.8528442 334.2792969,91.3484344 341.2428284,91.3484344 
		341.2428284,95.9228134 346.2527466,95.9228134 346.2527466,102.8544922 347.7483215,102.8544922 347.7483215,95.9228134 
		357.1445007,95.9228134 357.1445007,102.7671509 358.6400757,102.7671509 358.6400757,95.9228134 362.778656,95.9228134 
		362.778656,91.3484344 369.7044983,91.3484344 369.7044983,89.8528442 	"/>
</g>
<text transform="matrix(1 0 0 1 27.1972656 63.0673828)" style="fill:#F2F2F2; font-family:'Impact'; font-size:17.9470024px;">Пн.</text>
<text transform="matrix(1 0 0 1 80.4404297 63.0673828)" style="fill:#F2F2F2; font-family:'Impact'; font-size:17.9470024px;">Вт.</text>
<text transform="matrix(1 0 0 1 131.8886719 63.0673828)" style="fill:#F2F2F2; font-family:'Impact'; font-size:17.9470024px;">Ср.</text>
<text transform="matrix(1 0 0 1 183.9345703 63.0673828)" style="fill:#F2F2F2; font-family:'Impact'; font-size:17.9470024px;">Чт. </text>
<text transform="matrix(1 0 0 1 236.5791016 63.0673828)" style="fill:#F2F2F2; font-family:'Impact'; font-size:17.9470024px;">Пц. </text>
<text transform="matrix(1 0 0 1 289.5234375 63.0673828)" style="fill:#F2F2F2; font-family:'Impact'; font-size:17.9470024px;">Сб.</text>
<text transform="matrix(1 0 0 1 338.2792969 63.0673828)" style="fill:#F2F2F2; font-family:'Impact'; font-size:17.9470024px;">Вск.</text>
</svg>
