<?xml version="1.0" standalone="no"?>
<!DOCTYPE svg PUBLIC "-//W3C//DTD SVG 1.1//EN" "http://www.w3.org/Graphics/SVG/1.1/DTD/svg11.dtd" >
<svg xmlns="http://www.w3.org/2000/svg" xmlns:xlink="http://www.w3.org/1999/xlink" version="1.1">
<metadata>
Created by FontForge 20190801 at Mon Nov  3 14:40:27 2008
 By root
Copyright (c) 2008 by Nate Piekos. Blambot.com. All rights reserved.
</metadata>
<defs>
<font id="CrashcourseBB" horiz-adv-x="422" >
  <font-face 
    font-family="Crashcourse BB"
    font-weight="400"
    font-stretch="normal"
    units-per-em="1000"
    panose-1="2 0 5 6 0 0 0 2 0 4"
    ascent="750"
    descent="-250"
    x-height="565"
    cap-height="561"
    bbox="4 -119 695 711"
    underline-thickness="50"
    underline-position="-100"
    stemh="109"
    stemv="105"
    unicode-range="U+0020-2122"
  />
<missing-glyph horiz-adv-x="263" 
 />
    <glyph glyph-name="copyright" unicode="&#x28;C&#x29;" horiz-adv-x="732" 
d="M611 502l84 -127l-13 -255l-40 -42c-11 18 -22 36 -35 54l14 14l11 211l-66 100l-109 70l-148 4l-108 -62c-3 4 -7 10 -11 12c-8 14 -15 27 -21 41l125 72l183 -5zM151 512c7 -16 15 -32 23 -46c3 -3 4 -7 4 -10l-5 -3l-57 -165l48 -172l135 -83l190 22
c8 -20 15 -40 22 -60l-226 -27l-175 108l-60 214l72 205zM531 -3c3 5 4 10 0 17c-10 14 -17 29 -24 43l34 4l49 53c13 -17 26 -34 38 -51l-58 -61zM470 305l-70 13l27 90l-24 6l-57 -79l-9 -90c-12 3 -24 8 -34 16c-10 18 -20 37 -30 55l3 30l53 72c20 -11 28 -27 45 -40
c26 20 -15 35 -23 49c-2 5 -3 9 -6 13l21 29l85 12l46 -58zM270 277c3 -6 7 -13 10 -21c9 -13 10 -32 19 -40c12 3 24 3 36 2l-6 -52l106 23c9 -20 17 -41 25 -61l-161 -33l-41 50zM480 133c-1 3 -2 7 -4 11l6 3l3 -13zM476 178c-2 1 -4 1 -5 2l-6 15l7 2z" />
    <glyph glyph-name="registered" unicode="&#x28;R&#x29;" horiz-adv-x="724" 
d="M598 502l84 -127l-13 -255l-99 -104c-13 16 -27 31 -40 48l78 82l11 211l-66 100l-109 70l-148 4l-136 -78l-25 -73c-9 3 -20 -2 -28 -2c-11 1 -20 -12 -31 -4l-7 9l40 112l172 99l183 -5zM61 358l2 -5c6 -1 7 -7 6 -12c4 -6 13 -9 21 -8c9 8 21 14 34 15l-21 -60
l48 -172l135 -83l213 25c17 -19 35 -38 54 -57l-281 -33l-175 108l-60 214zM273 86l39 8c-15 21 -30 42 -42 64zM268 195c18 -34 42 -65 65 -97l14 3l-10 158v1l67 -166l55 20c1 5 7 6 13 6l-75 172l71 39c-26 9 -51 19 -77 27l-34 -17c-3 -11 -5 -23 -6 -36
c-4 -11 -14 -6 -22 -7l-13 4c-17 -2 -35 -1 -54 -1zM261 321c12 0 24 -1 35 -1c10 0 20 1 30 4c4 6 5 12 6 18l-4 64l65 12l24 -11l-4 -35c21 -8 42 -15 64 -23l16 93l-92 39l-169 -27l11 -63l15 3z" />
    <glyph glyph-name=".notdef" horiz-adv-x="263" 
 />
    <glyph glyph-name="plus" unicode="+" horiz-adv-x="362" 
d="M50 225l-5 105l86 4l-6 83l105 5l4 -84l79 3l9 -98l-84 -5l4 -84l-99 -9l-5 86z" />
    <glyph glyph-name="at" unicode="@" horiz-adv-x="724" 
d="M558 4l-30 6c-13 19 -25 39 -36 59c-27 8 -56 16 -84 25v40l-35 -20c-4 5 -9 8 -16 8c-18 19 -28 47 -38 72c3 14 18 16 25 25l2 -12h44l17 63l-28 27l-43 -35l3 -19c-19 33 -40 64 -59 97l15 9c42 -7 83 -14 123 -25c31 -40 66 -83 92 -126l-4 -73l21 -3l51 79l2 160
l-87 92l-170 29l-93 -54l-12 27l-8 8c-22 -2 -52 -20 -71 0c-7 7 -13 15 -20 23l191 99l234 -43l137 -138l-9 -255zM102 476l23 -31v-9c3 -7 10 -7 16 -5c20 5 41 15 62 5c3 -6 6 -12 10 -18l-12 -7l-43 -168l51 -138l74 -9v-94l-152 9l-91 230zM512 228
c-33 41 -64 87 -85 132c-1 0 -2 1 -4 1l14 27l83 -15zM416 358c-1 0 -3 -1 -4 -2c-26 4 -53 10 -81 15l10 6zM261 329c19 -33 37 -65 53 -98c9 -8 -3 -12 -8 -15c-17 -4 -16 -23 -15 -33c14 -30 32 -59 49 -87l-6 -3l-98 103l20 130zM408 76c19 -6 37 -13 55 -24
c6 -11 22 -10 30 -19c4 -6 8 -12 12 -19l-97 19v43z" />
    <glyph glyph-name="asciitilde" unicode="~" horiz-adv-x="414" 
d="M80 214l-40 89l131 67l58 -73l20 12c11 -30 24 -59 33 -91l-62 -37l-60 73zM271 323l50 32l49 -83l-70 -43c-12 30 -20 62 -29 94z" />
    <glyph glyph-name="equal" unicode="=" horiz-adv-x="370" 
d="M45 297l-4 105l44 1c3 -4 7 -9 9 -14c7 -30 19 -58 31 -87zM114 405l195 8l9 -98l-172 -12c-11 34 -19 69 -32 102zM57 147l-5 105l89 4c5 -18 9 -37 10 -57c18 -8 32 11 51 12c13 -1 31 11 45 -3l25 -47zM162 257l158 6l9 -98l-36 -2c-13 29 -34 57 -39 83
c-4 -2 -8 0 -9 3c-8 -4 -15 -3 -20 -13c-6 -3 -15 -6 -21 -3c-7 -11 -21 0 -28 -9v6c-5 8 -10 17 -14 27z" />
    <glyph glyph-name="hyphen" unicode="-" horiz-adv-x="359" 
d="M49 225l-5 105l65 3c12 -28 24 -55 40 -81c4 -6 5 -13 6 -20zM124 333l100 5c2 -2 5 -3 7 -5c19 -31 38 -61 57 -92l-113 -8c-5 8 -13 16 -12 24c-17 25 -28 51 -39 76zM247 339l65 2l9 -98l-13 -1c-19 33 -41 64 -61 97z" />
    <glyph glyph-name="period" unicode="." horiz-adv-x="232" 
d="M57 -1l-6 104l50 9c10 -35 25 -68 37 -103zM126 116l44 8l4 -111l-16 -2c-13 34 -21 70 -32 105z" />
    <glyph glyph-name="quotesingle" unicode="'" horiz-adv-x="211" 
d="M50 521v51l120 5l-18 -209c-35 49 -70 95 -99 148c-1 2 -2 3 -3 5zM132 367l-82 -4v120c27 -39 55 -78 82 -116z" />
    <glyph glyph-name="exclam" unicode="!" horiz-adv-x="221" 
d="M63 -10l-6 103l119 22l4 -112zM121 172l-52 -13l-11 144c3 -5 5 -10 8 -15c20 -38 33 -79 55 -116zM53 360l-5 59c8 5 16 9 14 20c-6 11 -12 21 -18 31l-6 83c32 -5 64 -11 96 -20c9 -12 20 -25 30 -38l1 -204l-60 18l-2 4c-11 0 -15 19 -30 18c-8 8 -14 19 -20 29z
M94 571l69 15v-56c-7 13 -14 26 -20 39c-5 2 -11 0 -15 -4c-11 2 -23 4 -34 6zM165 269v-85l-30 -8c-24 39 -37 80 -57 118l2 3c30 -8 58 -14 85 -28z" />
    <glyph glyph-name="question" unicode="?" horiz-adv-x="427" 
d="M150 -10l-6 103l120 22l4 -112zM170 378l-93 -29l-39 126l20 12c6 -12 12 -24 18 -37c8 -12 9 -30 17 -37c21 5 43 1 64 -1c2 -1 5 -2 7 -2zM73 498l129 81l174 -75l-5 -164c-5 7 -10 14 -16 20c-1 12 -4 20 -14 25l-5 -5c-23 -1 -52 -8 -74 -3l5 64l-58 24l-52 -21l2 -9
c-22 1 -44 5 -62 19c-8 14 -16 29 -24 44zM354 326l-76 -44c-9 22 -15 44 -23 65l10 5c11 3 23 5 34 5c14 0 28 -3 40 -11c5 -7 10 -14 15 -20zM264 274l-8 -4l3 -87l-102 -17l-18 152l91 41c11 -28 23 -57 34 -85z" />
    <glyph glyph-name="A" unicode="A" 
d="M260 134c1 0 3 0 5 -1c32 -47 66 -93 99 -140l-98 -9zM52 230c13 -1 31 10 45 -4l36 -69c3 -11 3 -26 16 -31c2 -3 4 -6 5 -10l-8 -111l-115 3zM183 583l-2 -100c-23 23 -44 46 -67 69l49 30zM354 479l-45 32c-17 8 -27 46 -51 24c-2 -3 -2 -8 0 -10
c-9 -17 -16 -35 -23 -53l-33 -9l2 98l110 6l39 -82zM380 -1c-20 29 -40 58 -58 90c-6 13 -20 21 -23 36c-13 10 -10 39 -28 38c-4 -3 -8 -5 -12 -5l-7 147l-84 -16l-10 -122l-9 -3c-12 35 -39 70 -45 100c-4 -1 -8 0 -9 3c-9 -4 -16 -3 -20 -13c-6 -3 -15 -6 -21 -3l22 250
l31 18c27 -23 51 -48 74 -75l-5 -64l72 15l-2 58c7 20 15 40 26 58l6 2c25 -16 51 -35 77 -52l2 -44l27 5l19 -88l-41 -8z" />
    <glyph glyph-name="B" unicode="B" horiz-adv-x="456" 
d="M257 482l-96 -17l7 -113l117 58l6 56zM423 158l-2 -59l-10 -20c-16 12 -34 19 -47 32c15 19 38 33 59 47zM72 179l-13 268l-21 -4l-17 91l247 40l135 -57l-28 -157l-95 -52l127 -36l-2 -65h-4c-11 -15 -15 -36 -34 -46c-3 -7 -16 -6 -16 -15c-11 -13 -28 -10 -36 -24
l-24 17l3 74l-119 34l8 -142h5c-4 -10 -9 -19 -15 -28c-35 34 -66 68 -101 102zM358 11l-276 -14l-9 160c37 -33 69 -69 99 -110c7 0 14 4 17 8c6 16 11 33 17 50l84 2l1 14c24 -17 49 -34 75 -46c6 -5 12 -9 18 -13z" />
    <glyph glyph-name="C" unicode="C" horiz-adv-x="424" 
d="M267 376c13 -3 27 -6 40 -10c11 -15 24 -31 36 -47l-88 17zM354 318c-18 27 -35 55 -48 82c-5 3 -10 0 -15 -4c-8 2 -17 3 -25 5l21 71l-36 9l-49 -68c-23 5 -46 9 -69 14c-7 9 -13 19 -19 30l80 108l130 19l71 -89zM101 439c19 -35 40 -70 59 -105l-22 -233l91 20l1 -2
c15 -29 26 -60 40 -90l-179 -37l-63 76l28 309zM294 20c-15 30 -27 61 -42 91l10 2c32 -8 61 -15 89 -33c7 -11 22 -10 30 -19l5 -22zM355 107c-24 7 -50 14 -75 22l67 15zM178 359c-5 8 -9 16 -14 24l2 2c10 -2 19 -3 28 -5z" />
    <glyph glyph-name="D" unicode="D" horiz-adv-x="437" 
d="M197 466l-38 -7l8 -132l-1 1c-18 33 -36 67 -52 101c-10 19 -28 39 -29 60c33 -1 69 -10 104 -18c3 -1 6 -3 8 -5zM234 8l-155 -17l-23 449l-21 -4l-15 89l21 4c2 -5 5 -10 8 -14c7 -7 -1 -19 10 -20c29 -61 57 -110 86 -172c8 -12 9 -29 18 -36c2 0 4 1 7 1l12 -195h9
l76 61l12 122c2 -1 3 -4 4 -6c24 -56 46 -111 67 -167zM60 533l211 38l132 -46l-28 -274c-20 -2 -41 -4 -56 3l-17 52c-6 8 -13 7 -20 4l15 147l-37 21l-41 -8c-4 3 -7 6 -8 9c-4 7 -4 12 -12 17c-5 1 -15 5 -15 -5c-36 3 -66 13 -97 24c-13 -7 -15 9 -24 13c-1 2 -2 3 -3 5
zM396 219l-35 -104c-10 35 -11 71 -15 106l12 2c13 1 26 0 38 -4z" />
    <glyph glyph-name="E" unicode="E" horiz-adv-x="367" 
d="M210 393l103 12v-94l-35 -5c-11 8 -25 14 -32 24c-18 17 -43 25 -59 42c7 8 15 15 23 21zM61 -11l-7 278l-8 -1l-12 53c5 14 10 29 15 44h4v9c5 12 11 25 18 37l6 2c43 -28 85 -62 131 -84c16 -11 31 -24 45 -36l-91 -11l5 -177l163 38l10 -95zM62 445l-1 33l-21 -3
l-4 92l93 15l-39 -115c-6 5 -14 6 -24 -3c-2 -3 -2 -8 0 -10c-1 -3 -3 -6 -4 -9zM92 424l44 129l172 28l3 -103l-154 -19l2 -80c-1 -2 -2 -3 -3 -4l-47 34c-6 3 -12 9 -17 15z" />
    <glyph glyph-name="F" unicode="F" horiz-adv-x="349" 
d="M304 529l-53 65l51 8zM175 12l-112 -13l-3 268l-9 -1l-20 94l17 2l16 -22v-9c3 -7 10 -7 16 -5c20 5 41 16 62 6c8 -17 17 -35 27 -52h-2zM58 382l-1 65l-20 -3l-5 92l214 34l70 -85v-7l-154 -19l3 -84l152 17v-94l-125 -15c-16 20 -25 44 -35 67l-8 8
c-22 -1 -52 -20 -71 0c-7 8 -13 16 -20 24z" />
    <glyph glyph-name="G" unicode="G" 
d="M385 156l-18 -7l-19 2c-24 34 -50 66 -71 102l107 17zM355 307l-107 21l16 54c17 0 33 -1 48 1l13 -4c6 0 12 -2 17 1h30zM375 397h-28c2 19 6 36 11 53l27 -9zM391 460l-48 18c-6 -1 -9 -9 -6 -15c-14 -18 -3 -39 -16 -58c-16 -6 -33 -4 -51 -4l19 65l-36 8l-54 -73
c-8 -1 -17 -1 -25 2c-19 15 -20 37 -37 54c-3 4 -7 5 -12 5l71 97l130 19l71 -89zM95 421c11 7 25 10 37 6c15 -19 29 -39 43 -59l-10 -14l-25 -259l133 29l1 50l-63 -7v88l40 6l9 -12c21 -40 53 -78 75 -117c8 2 18 0 24 5c7 0 13 1 20 3v-99l-286 -55l-63 76l28 309z" />
    <glyph glyph-name="H" unicode="H" horiz-adv-x="375" 
d="M314 243l-7 -201l-109 -14l8 176c5 0 9 1 12 4c37 0 64 21 96 35zM161 15l-112 -13l-6 423c25 -35 49 -71 76 -105c10 -19 22 -38 35 -56zM32 465l-1 63l103 22l2 -85c-17 0 -34 2 -53 -1c-18 7 -35 -1 -51 1zM148 452l2 -77l65 15l6 128c34 -11 68 -24 102 -36l-2 -69
l23 5l17 -89l-44 -9l-2 -52c0 -1 -1 -1 -1 -2l-95 -36l-11 1l3 67l-51 -10c-16 21 -30 44 -42 68l-4 1c-22 30 -49 61 -65 94c11 2 22 2 34 2c22 0 44 -2 65 -1zM222 540l1 27l103 5l-2 -69c-35 12 -69 25 -102 37z" />
    <glyph glyph-name="I" unicode="I" horiz-adv-x="211" 
d="M50 389l-2 151l103 21l6 -200c-2 5 -3 9 -10 14c-5 0 -14 4 -14 -6c-31 3 -57 10 -83 20zM167 21l-112 -13l-4 278c14 -27 28 -54 43 -84c7 -12 8 -30 17 -37c17 4 35 2 52 0zM59 321l-1 41c28 -3 58 -11 87 -18c9 -4 15 -10 21 -15l4 -146c-17 2 -34 7 -48 18
c-18 33 -36 67 -52 101c-3 6 -7 12 -11 19z" />
    <glyph glyph-name="J" unicode="J" horiz-adv-x="375" 
d="M93 476l-43 -4l-1 47c14 2 31 -2 41 -13zM339 477l-57 -5l4 -75c-8 -9 -13 -21 -26 -27c-28 6 -47 29 -77 40l-2 52l-52 -5c-2 18 4 34 0 52c-2 13 -20 14 -29 19c-9 7 -22 1 -28 12l269 28zM288 360l12 -263l-5 -6c-1 7 -1 14 -2 21c-6 4 -19 16 -25 10l-76 13l4 5
l-12 249c19 -12 38 -24 57 -33l9 -10c7 -4 14 -13 22 -5c5 6 10 13 16 19zM271 63l-45 -53l-140 -12l-58 50l69 84l33 -28l40 5l3 4c29 -10 59 -6 90 -12l4 -6c1 -11 2 -21 4 -32z" />
    <glyph glyph-name="K" unicode="K" horiz-adv-x="414" 
d="M341 423l-60 -81c-16 12 -36 20 -49 33c19 24 50 39 75 58l3 6c10 -6 21 -11 31 -16zM170 9l-113 -13l-4 326c2 1 3 2 3 3c12 32 22 70 41 101l6 2c19 -12 37 -25 55 -37v-1h1c24 -17 49 -33 75 -46c6 -4 12 -9 18 -13l-3 -4l132 -341l-97 -44l-122 322zM45 367l-2 159
l103 21l4 -140l-23 17c-18 8 -28 46 -52 24c-2 -3 -2 -8 0 -10c-12 -22 -20 -48 -30 -71zM182 392l-14 10l145 184l92 -50l-72 -97c-10 5 -19 11 -28 16c-16 5 -20 21 -37 22c-11 -16 -14 -36 -33 -47c-4 -6 -16 -5 -17 -15c-10 -13 -28 -9 -36 -23z" />
    <glyph glyph-name="L" unicode="L" horiz-adv-x="354" 
d="M159 171l4 -61l158 28l15 -89l-276 -60l-17 351c19 -28 39 -56 60 -83c15 -29 37 -57 56 -86zM40 409l-6 124l102 13l8 -137c-21 -2 -42 3 -66 -2c-13 6 -26 3 -38 2zM155 395l11 -182c-20 27 -40 55 -55 86l-4 1c-18 26 -41 51 -57 79v15c10 1 21 2 32 2
c25 0 49 -2 73 -1z" />
    <glyph glyph-name="M" unicode="M" horiz-adv-x="570" 
d="M523 19l-104 -20l-10 219l18 -12c3 -35 8 -71 13 -108c27 -29 55 -54 83 -79zM157 2l-109 -13l-3 538l87 13c1 -1 2 -2 2 -4c-2 -6 -1 -13 -1 -21c-18 -23 -42 -41 -70 -53l-9 -14c-4 -23 21 -31 31 -48c16 -26 42 -51 63 -72c34 -29 59 -64 89 -98
c1 -20 -15 -48 -30 -60c6 -5 -6 -8 -3 -15c40 -29 69 -70 100 -109l-78 -15l-77 212zM179 537l12 2l72 -202c-2 -1 -4 -1 -6 -2c-28 1 -55 3 -78 11l-70 88l8 13c22 15 39 34 61 47c0 5 2 10 8 13c-1 10 -4 21 -7 30zM245 324l28 -81l21 59c31 -20 63 -45 95 -69l-55 -181
l-8 -1c-28 35 -55 71 -90 104l-3 11c10 18 24 35 38 50c1 4 0 11 -4 13c-30 29 -58 59 -82 91c19 -2 40 4 60 4zM302 323l77 217l125 8l18 -387c-39 27 -77 55 -114 83l-2 44l-11 -35c-31 24 -62 48 -93 70zM533 123l4 -96c-18 18 -36 36 -52 55c-23 26 -12 63 -23 89
c27 -14 46 -30 71 -48z" />
    <glyph glyph-name="N" unicode="N" horiz-adv-x="435" 
d="M393 127l-3 -136l-118 -33l-74 235c8 1 17 -2 24 2c38 -4 69 15 106 24l6 -4c17 -31 38 -60 59 -88zM155 -2l-106 -8l-2 474c25 -48 48 -97 75 -144c8 -20 18 -41 29 -62zM47 501v39l115 28l36 -103c-27 -2 -51 9 -80 8c-20 11 -41 1 -60 11c-5 5 -8 11 -11 17zM206 440
l67 -193l7 241c35 -17 70 -36 105 -54l-7 -264c-14 24 -29 47 -43 72c-7 0 -23 7 -26 -1l-100 -23l-18 5c-22 44 -49 86 -65 134l-4 1c-17 33 -40 67 -51 102c41 0 83 -13 121 -14l12 -6h2zM262 512l1 47h106l-3 -101c-35 18 -70 36 -104 54z" />
    <glyph glyph-name="O" unicode="O" horiz-adv-x="479" 
d="M416 136c-28 8 -58 17 -87 27l-2 4c-2 0 -4 0 -5 1l15 50l-8 144l-37 39c22 -4 44 -8 66 -14c24 -32 51 -66 75 -100l8 -74zM252 568l162 -117l15 -130c-24 32 -46 67 -62 101c-5 3 -11 0 -15 -4c-30 6 -62 12 -93 18l-19 20l-28 -11c-6 1 -12 2 -18 4
c-16 19 -25 45 -36 68l-8 8c-15 -1 -33 -9 -50 -9l6 15zM93 497c16 5 33 10 50 2c12 -25 25 -49 39 -73l-39 -101l5 -155l68 -77l83 30c16 -33 28 -68 47 -100l-163 -38l-142 158l3 219zM366 12c-21 34 -34 70 -50 105l5 16c31 -8 60 -15 87 -32c1 -2 3 -4 4 -6l-25 -78z
" />
    <glyph glyph-name="P" unicode="P" horiz-adv-x="424" 
d="M264 475l-95 -17l7 -112l116 57l6 56zM78 199l-12 241l-21 -4l-16 92l247 40l135 -57l-28 -158l-188 -102c-5 1 -11 -1 -17 -7c-2 -2 -2 -8 0 -10c-16 -29 -24 -65 -42 -93c-21 19 -39 38 -58 58zM201 113l-35 13c9 24 17 51 29 75zM196 12l-107 -22l-10 187
c20 -21 38 -43 56 -67c5 0 10 3 14 6l42 -16z" />
    <glyph glyph-name="Q" unicode="Q" horiz-adv-x="471" 
d="M166 364c-13 28 -22 58 -32 86l11 6c11 3 22 5 32 5c15 0 29 -4 42 -12c3 -5 7 -10 11 -16l-44 -17zM247 568l161 -119l22 -189c-19 -4 -41 -12 -56 3c-17 20 -33 41 -48 62l-2 35l-43 45c-16 26 -32 51 -53 76c-1 11 -3 20 -14 25l-5 -5c-17 -1 -38 -5 -57 -5
c-11 0 -21 1 -29 5l-11 32zM92 507c20 -50 40 -99 59 -150l-13 -35l4 -157l69 -77l46 17l-78 146l85 59l63 -110l4 14l-3 75l32 -44v-9c3 -7 10 -7 16 -5c18 5 37 14 56 8l4 -30l-41 -127l40 -70l-96 -59l-30 56l-132 -30l-141 159l2 222z" />
    <glyph glyph-name="R" unicode="R" horiz-adv-x="417" 
d="M182 445l-23 -4l6 -106c-10 20 -20 41 -30 61c-10 19 -28 39 -28 61c24 -1 49 -6 75 -12zM73 536l194 32l135 -57l-28 -158l-112 -61c-26 1 -53 4 -74 20c-6 12 -12 23 -19 35l114 56l7 56l-34 16l-26 -5c-2 4 -4 7 -9 11c-5 1 -14 4 -14 -5c-37 2 -66 13 -98 24
c-13 -8 -15 9 -24 13c-5 8 -9 15 -12 23zM187 12l-107 -22l-23 450l-21 -4l-16 92l33 5c6 -12 12 -24 18 -34c7 -7 -1 -18 10 -20c29 -61 57 -109 86 -171c8 -12 9 -30 18 -37c21 5 42 1 63 -1c7 -2 15 -3 23 -3l111 -252l-98 -46l-110 275h-1z" />
    <glyph glyph-name="S" unicode="S" horiz-adv-x="443" 
d="M168 269c-1 1 -1 3 -2 5l-4 1c-17 33 -40 67 -51 102c29 0 60 -7 89 -11zM381 301l-96 14l24 90c31 -15 61 -31 92 -47zM385 380c-31 16 -62 33 -92 49l12 47l-91 -28l-23 -70c-15 3 -31 7 -49 6c-18 11 -39 2 -57 10l39 120l220 68l77 -97zM76 367
c23 -45 45 -91 71 -136c9 -24 21 -48 33 -72l-102 -6l-41 94zM201 161c-16 30 -33 60 -45 93l162 9l58 -21l25 -157c-14 23 -28 45 -41 68c-7 1 -24 7 -26 -1l-51 -12l-3 25zM287 115c16 5 32 12 50 16l5 -4c16 -27 34 -53 53 -79l-45 -45l-233 -26l-95 19l31 94l59 -19
l178 19z" />
    <glyph glyph-name="T" unicode="T" horiz-adv-x="325" 
d="M225 314l2 -75c-18 24 -36 47 -48 72c15 3 30 3 46 3zM225 8l-112 -13l-5 377c1 0 2 0 3 -1c38 -48 71 -101 108 -151zM107 406v45l-87 -8l-4 6l-3 81l301 30l-1 -91l-102 -9l4 -116h-1c-21 8 -41 -5 -61 3c-19 15 -20 37 -36 54c-3 3 -6 4 -10 5z" />
    <glyph glyph-name="U" unicode="U" horiz-adv-x="450" 
d="M158 340c-3 0 -7 0 -10 1l-84 74l5 15c19 18 32 40 51 57c0 4 1 10 6 13c-3 13 -9 24 -16 35l65 -2zM60 516h11c5 -6 10 -12 14 -18c-1 -6 2 -12 2 -20c-8 -17 -20 -32 -34 -45zM57 386c5 -3 10 -6 14 -10c20 -23 50 -43 75 -60c3 -1 6 -3 9 -5l-15 -173l42 -38l101 7
l5 12c29 -23 56 -49 85 -73l-19 -39l-247 -19l-73 123zM381 65c-28 25 -55 50 -86 74l13 32l-8 143c35 -15 72 -35 108 -53l6 -125zM407 284c-37 19 -73 37 -108 55l-12 205l106 10z" />
    <glyph glyph-name="V" unicode="V" horiz-adv-x="388" 
d="M210 206l21 124l10 -3c8 0 18 -4 22 6c2 24 7 43 12 63c23 -7 45 -15 68 -23l-49 -258l-18 -7l-19 1c-17 24 -34 47 -51 71l3 19c-7 12 -15 24 -21 38h-4c-22 31 -49 61 -65 94c21 3 43 3 65 2zM15 533l110 13l42 -197c-6 0 -11 -1 -16 -2c-21 9 -41 -4 -61 4
c-19 15 -20 37 -37 54c-3 3 -7 5 -11 5zM50 373c43 -57 80 -119 126 -176c21 -40 53 -78 75 -117c8 2 18 0 24 5c5 0 9 1 14 1l-15 -79l-139 -21zM347 393c-30 10 -59 21 -88 33c-6 -1 -9 -9 -6 -15c-14 -18 -3 -39 -16 -58c0 -1 -1 -1 -2 -1l33 198l110 10z" />
    <glyph glyph-name="W" unicode="W" horiz-adv-x="518" 
d="M126 488c-12 16 -23 32 -33 48l28 4zM11 524l61 9l-1 -3l59 -81l22 -215l40 191c10 2 20 2 30 -3c34 -69 77 -137 111 -205c9 -8 -3 -12 -8 -16c-17 -3 -16 -22 -15 -33c16 -36 40 -70 59 -103c9 -17 16 -34 23 -50l-87 -20l-55 204l-45 -188l-124 -20zM418 5
c-8 18 -16 36 -25 53l2 3c21 -6 41 -11 61 -18l-4 -31zM446 74c-13 4 -26 8 -38 12l-2 4c-11 -1 -15 19 -30 17c-18 20 -28 47 -38 73c3 12 13 15 20 21l2 -6v7c4 3 6 7 5 14c-1 2 -2 4 -3 7l7 102c23 -4 45 -9 68 -15c10 -13 21 -27 31 -41zM472 298c-10 16 -19 32 -26 48
c-5 2 -11 0 -15 -4c-20 3 -40 7 -60 11l13 191l118 18zM346 249c-18 29 -36 57 -53 88l2 1c10 -2 20 -3 30 -5zM317 364c-15 2 -29 5 -44 8c-17 20 -26 45 -36 68l-9 9l64 11z" />
    <glyph glyph-name="X" unicode="X" horiz-adv-x="375" 
d="M322 387l-30 -68c-2 6 -5 11 -8 17c-10 19 -27 39 -28 61c21 -1 43 -5 66 -10zM128 -12l-107 27l112 249l-104 250l91 48l71 -167l18 40c2 -7 -1 -15 8 -16c18 -38 35 -71 53 -105l-22 -51l98 -232l-92 -59l-65 156zM218 456l42 94l98 -33l-43 -98c-25 4 -47 12 -70 21
c-13 -8 -16 9 -25 13c0 1 -1 2 -2 3z" />
    <glyph glyph-name="Y" unicode="Y" horiz-adv-x="348" 
d="M289 357v-1l-46 -151l3 -62c-5 6 -10 12 -18 11c-18 20 -28 47 -38 72c4 19 29 16 27 37c-23 41 -50 79 -73 120l3 2c49 -9 95 -16 142 -28zM253 2l-112 -7l-5 223l-107 250c14 4 30 8 45 1c33 -69 77 -138 111 -205c9 -9 -3 -13 -8 -16c-18 -3 -16 -22 -15 -33
c16 -36 40 -71 59 -104c11 -22 20 -44 30 -67zM9 499l-5 11l94 47l66 -137c-17 3 -34 6 -50 9c-17 20 -26 46 -37 69l-8 8c-18 -1 -42 -14 -60 -7zM198 404l48 160l102 -13l-49 -162l-1 3c-5 3 -11 0 -15 -4c-28 5 -57 10 -85 16z" />
    <glyph glyph-name="Z" unicode="Z" horiz-adv-x="424" 
d="M295 115l101 12l6 -65l-56 -13l-19 4c-10 21 -22 41 -32 62zM65 415l-14 116l301 34l25 -125l-94 -139c-19 2 -37 8 -58 7c-20 11 -42 1 -60 11l-3 3l79 121zM277 261l-51 -75c-15 28 -33 57 -42 86c31 1 63 -7 93 -11zM209 192l-58 -86l95 11c14 -29 30 -59 42 -88
c8 1 18 -2 24 2c23 -2 43 3 63 10l2 -29l-326 -31l-39 111l139 213c19 -38 38 -76 58 -113z" />
    <glyph glyph-name="a" unicode="a" horiz-adv-x="404" 
d="M52 367c26 -27 51 -54 78 -85c9 -9 15 -24 23 -30l-19 -246l-115 2zM368 -5l-114 -11l-12 286c13 4 27 6 35 -4c28 -36 56 -72 83 -108zM371 173c-10 14 -19 28 -29 42l9 8c5 3 11 6 17 8zM354 266c-14 -5 -27 -8 -38 -6l-31 46c-10 8 -18 1 -26 -7c-6 -1 -12 -3 -18 -4
l-1 10l-84 -15v-2c-2 1 -5 2 -7 3c-27 27 -53 55 -77 84c-5 5 -12 11 -18 16l4 40c24 3 50 3 75 4c14 -2 23 -9 34 -15l-3 -39l72 14l-3 80l-63 -16l-2 -19c-6 2 -13 5 -16 9c-5 5 -7 10 -16 13c-5 0 -15 1 -13 -8c-22 -5 -43 -6 -63 -5l5 52l93 58l144 8l39 -82l4 -68l27 6
l19 -89l-41 -8z" />
    <glyph glyph-name="b" unicode="b" horiz-adv-x="430" 
d="M351 11l-276 -13l-23 449l-21 -4l-16 92l114 18c3 -5 6 -10 9 -16c8 -23 20 -46 32 -69l-15 -3l6 -112l117 58l1 10c16 6 31 12 49 16l5 -4c12 -20 24 -40 38 -59l-2 -13l-96 -53l127 -35l-6 -178zM148 557l113 18l135 -57l-18 -105c-9 15 -19 30 -27 46
c-7 1 -24 7 -27 -1l-42 -10l2 18l-34 16l-61 -11c-14 28 -30 56 -41 86zM287 214l-119 33l9 -141l107 1z" />
    <glyph glyph-name="c" unicode="c" 
d="M354 314l-107 21l41 138l-36 8l-88 -120l-2 -18l-6 18c-8 10 -17 6 -27 0c-23 2 -49 0 -73 6l1 10l138 189l130 19l71 -89zM54 343l27 -3c18 -6 48 4 57 -16c6 -14 12 -29 18 -44l-17 -179l219 48l20 -97l-286 -59l-63 76z" />
    <glyph glyph-name="d" unicode="d" 
d="M186 334l6 -96l-1 1c-22 30 -49 60 -64 93c19 3 39 3 59 2zM232 8l-154 -17l-20 381c39 -53 73 -108 115 -161l7 -117h9l39 32c8 -12 16 -24 23 -36c8 2 17 0 23 6c33 0 59 18 87 31l-1 -14zM56 412l-1 28l-22 -4l-15 90l251 46l132 -46l-14 -137c-32 11 -64 23 -95 35
l3 33l-37 21l-101 -18l7 -100c-5 -1 -9 -1 -14 -2c-21 9 -41 -4 -61 3c-17 14 -20 35 -33 51zM385 368l-21 -217l-89 -33l-19 2l-12 18l21 17l24 247c32 -11 64 -22 96 -34z" />
    <glyph glyph-name="e" unicode="e" horiz-adv-x="383" 
d="M250 359l80 9v-94l-34 -4c-16 28 -31 57 -44 86c-1 1 -1 2 -2 3zM71 -11l-6 279l-9 -1l-20 94l27 3l-1 83l-20 -2l-5 91l102 17c1 -3 2 -6 2 -8c12 -27 24 -57 38 -79c1 -1 2 -3 2 -4l-14 -2l2 -84l52 5c15 -29 30 -58 46 -89l-95 -11l6 -177l162 37l10 -94zM158 556
l160 25l3 -102l-103 -13l-1 1c-1 -1 -1 -1 -2 -1l-7 -1c-6 2 -9 12 -15 15c-15 24 -25 51 -35 76z" />
    <glyph glyph-name="f" unicode="f" horiz-adv-x="364" 
d="M70 218l-1 50l-8 -1l-21 94l28 3l-1 83l-21 -2l-5 91l282 45l2 -102l-153 -19l2 -84l153 17v-94l-150 -18l5 -182c-1 0 -3 -1 -4 -1c-11 2 -20 -11 -31 -3l-52 74c-11 14 -16 33 -25 49zM169 32l-113 -13l-2 180c24 -35 45 -70 64 -106c6 0 7 -7 6 -12c4 -6 13 -9 21 -8
c6 6 14 10 22 13z" />
    <glyph glyph-name="g" unicode="g" 
d="M365 40c-1 1 -2 2 -2 3c-4 6 -4 12 -11 17c-6 1 -15 4 -15 -5c-37 2 -66 13 -97 24c-13 -8 -16 9 -25 13c-3 6 -7 12 -10 19l63 13l1 51l-63 -8v89l166 25l2 -239zM350 308l-107 21l41 137l-37 9l-87 -120l-26 -260l52 11c5 -10 10 -19 15 -28c7 -7 0 -18 11 -20
c7 -15 14 -29 21 -43l-145 -29l-64 76l28 309l139 188l129 19l72 -88zM254 2c-7 11 -12 23 -13 35c33 -1 67 -10 102 -18z" />
    <glyph glyph-name="h" unicode="h" horiz-adv-x="383" 
d="M168 197l3 -89c-17 30 -36 61 -46 92c14 0 29 -1 43 -3zM161 16l-112 -13l-3 279c5 0 10 -1 15 -3c35 -61 62 -125 98 -187zM45 314l-3 221l103 21l6 -180l64 14l9 178l103 5l-6 -160l23 5l17 -88l-43 -9l-2 -42l-39 21c-7 0 -10 -7 -8 -14c-17 -16 -9 -38 -24 -55
c-12 -3 -24 -1 -37 1l3 67l-58 -12l2 -48c-19 8 -39 0 -56 10c-17 17 -15 40 -29 58c-5 9 -16 8 -25 7zM315 256l-7 -214l-99 -12l-9 18l7 165c9 -1 18 -2 26 -2l12 -6c8 -1 18 -6 23 4c5 22 12 41 20 60c9 -4 18 -9 27 -13z" />
    <glyph glyph-name="i" unicode="i" horiz-adv-x="224" 
d="M177 228l3 -115c-11 20 -21 41 -31 62c-10 19 -28 39 -29 61c19 0 38 -4 57 -8zM171 21l-113 -13l-4 304c6 -11 11 -22 17 -31c7 -7 -1 -19 10 -20c29 -61 57 -110 86 -171c1 -1 1 -2 2 -3zM54 362l-3 178l103 22l9 -298c-18 5 -36 11 -54 18c-13 -8 -16 8 -24 13
c-13 21 -22 44 -31 67z" />
    <glyph glyph-name="j" unicode="j" horiz-adv-x="357" 
d="M337 478l-57 -6l3 -71c-20 7 -39 15 -59 22c-6 -1 -9 -8 -6 -15c-14 -18 -4 -39 -16 -58c-6 -2 -12 -3 -18 -4l-6 117l-111 -11l-3 88l274 29zM284 379l12 -253l-55 -21l-20 2c-9 14 -18 27 -28 40l-9 181c3 0 6 0 9 1l13 -5c8 1 18 -3 21 7c3 24 7 43 13 63
c15 -5 29 -10 44 -15zM297 100l1 -3l-74 -86l-140 -13l-59 51l69 84l33 -28l41 5l15 18c12 -17 23 -33 33 -50c8 1 18 0 24 5c21 0 39 8 57 17z" />
    <glyph glyph-name="k" unicode="k" horiz-adv-x="404" 
d="M337 437l-50 -67c-3 7 -7 14 -10 21c-10 19 -28 39 -28 60c28 0 58 -7 88 -14zM91 12l-43 -5l-1 86c1 -2 2 -4 6 -5c13 -27 26 -51 38 -76zM46 142l-5 397l103 21l5 -159l60 76c1 0 2 -1 4 -1c17 -37 35 -70 52 -104l-25 -34l131 -340l-96 -45l-122 323l5 -189
c-27 4 -51 13 -77 22c-13 -8 -15 9 -24 13c-4 7 -7 13 -11 20zM164 49l1 -50l-48 -6c-2 3 -3 6 -4 8c-10 19 -28 39 -29 61c26 -1 53 -6 80 -13zM226 499l78 99l92 -50l-51 -69c-4 0 -7 -1 -7 -6c-37 2 -66 13 -97 24c-7 -4 -11 -2 -15 2z" />
    <glyph glyph-name="l" unicode="l" horiz-adv-x="362" 
d="M60 118c14 -31 26 -62 45 -92c3 -4 4 -10 5 -16l-44 -10zM169 103c6 -12 22 -11 30 -20c15 -24 30 -47 45 -71l-104 -23c-4 6 -9 12 -8 18c-27 40 -40 82 -61 123v8c35 -9 67 -17 98 -35zM326 149l16 -89l-93 -20c-18 28 -37 56 -54 86zM80 179c-9 -1 -14 13 -24 17
l-10 217c22 -4 44 -8 65 -14c14 -18 29 -38 44 -57l12 -193c-28 8 -57 16 -85 26zM120 434c-5 3 -10 0 -15 -4c-20 4 -40 8 -61 12l-5 103l103 13l11 -183c-13 20 -24 39 -33 59z" />
    <glyph glyph-name="m" unicode="m" horiz-adv-x="573" 
d="M512 62l2 -35l-109 -21l-5 99c17 8 32 17 50 24l6 -3c17 -23 36 -44 56 -64zM52 0l-2 422c5 -10 11 -20 16 -29c5 -1 7 -7 6 -12c4 -7 13 -10 21 -8c11 10 30 18 46 13c44 -58 82 -120 128 -178c20 -40 53 -78 75 -118c2 1 3 1 4 1l-8 -27l-109 -22l-77 212l8 -241z
M49 455v83l122 19l70 -199c-21 8 -41 -4 -60 3c-20 15 -20 38 -37 54c-9 11 -24 3 -35 2c-11 2 -20 -11 -31 -3zM247 341l30 -87l31 87h11l13 -4c8 1 18 -3 21 7c3 24 7 43 13 63c50 -16 100 -35 151 -53l11 -246c-14 17 -27 33 -40 50c-7 0 -24 5 -26 -4l-45 -17l-7 163
l-55 -181l-8 1c-27 41 -60 79 -81 124l-5 1c-21 30 -48 61 -64 94c16 2 33 3 50 2zM343 438l40 113l125 8l8 -183z" />
    <glyph glyph-name="n" unicode="n" horiz-adv-x="445" 
d="M402 386l-4 -151c-2 2 -5 3 -7 5c-18 33 -36 67 -52 101c-10 19 -28 39 -29 61c30 -1 61 -9 92 -16zM53 1l-3 550l116 29l110 -322l5 139c24 -50 49 -94 75 -148c8 -12 8 -30 17 -36c3 0 7 1 10 1l-5 -210l-118 -34l-106 324l5 -285zM282 445l4 124h106l-4 -152
c-33 4 -61 13 -90 24c-8 -5 -12 -1 -16 4z" />
    <glyph glyph-name="o" unicode="o" horiz-adv-x="482" 
d="M411 90c-24 21 -48 41 -76 59l-5 10c6 20 17 38 28 56c1 5 -1 11 -6 12c-3 2 -5 4 -8 5l-4 82c33 -11 68 -29 103 -47l7 -58zM245 579l161 -117l18 -156c-32 16 -63 32 -95 47c-1 1 -4 3 -7 5v16l-90 93l-55 -21l-22 -60l-35 31l5 15c19 18 32 40 51 57c0 4 1 10 6 13
c-6 21 -17 38 -31 54zM126 549c9 -9 17 -19 25 -28c-2 -7 1 -13 2 -21c-13 -26 -34 -48 -59 -65l-7 -16c1 -23 26 -27 39 -41c6 -6 12 -12 19 -18l-10 -24l5 -155l69 -76l93 33l3 10c30 -18 56 -41 83 -64l-14 -42l-199 -46l-142 158l3 220l62 168z" />
    <glyph glyph-name="p" unicode="p" horiz-adv-x="417" 
d="M58 394l-3 57l-21 -3l-16 91l247 40l135 -57l-21 -117c-32 11 -63 22 -95 34l4 31l-34 16l-96 -17l5 -75c-23 -3 -47 3 -73 -2c-11 5 -21 3 -32 2zM185 23l-107 -21l-16 313c17 -25 34 -49 53 -73c17 -33 42 -64 63 -96zM72 337l-2 28c35 3 72 -2 105 1l1 -19l30 15
c2 0 3 1 5 2l82 41v4c31 -12 63 -23 94 -34l-3 -20l-201 -110l4 -71c-22 30 -45 60 -61 95l-5 1c-15 22 -34 44 -49 67z" />
    <glyph glyph-name="q" unicode="q" horiz-adv-x="474" 
d="M156 322l11 28c-15 1 -30 1 -45 1c-12 0 -24 0 -36 -2c16 -33 43 -63 64 -94l5 -1c1 -3 2 -5 4 -8zM105 542l146 37l162 -119l8 -74c-54 19 -109 38 -162 58l-20 22l-55 -22l-24 -63c-14 0 -29 1 -44 -2c-21 9 -41 -4 -61 4l-6 6zM40 149l2 219c33 -46 63 -94 99 -139
c1 -3 3 -5 4 -8l2 -45l68 -77l47 17l-2 4c29 6 53 24 82 35l6 -3c16 -21 33 -40 51 -59l40 -70l-96 -59l-30 56l-131 -30zM440 220l-32 -98c-15 19 -31 38 -46 58c-7 0 -24 4 -26 -5l-88 -33l-65 121l85 59l64 -111l4 14l-8 146l-38 40c45 -15 89 -32 134 -47z" />
    <glyph glyph-name="r" unicode="r" horiz-adv-x="417" 
d="M184 23l-107 -21l-6 110c13 -1 25 0 36 1l13 -4c8 1 19 -4 22 7c3 23 7 42 12 62c7 -2 14 -4 21 -7zM70 131l-16 320l-21 -3l-16 91l247 40l134 -57l-27 -157l-19 -11l-1 3l-8 8c-22 -2 -52 -20 -71 0c-9 10 -18 21 -27 32l35 18l6 55l-34 16l-95 -17l7 -112l63 32
l31 -42v-9c3 -7 11 -7 16 -5c18 4 36 13 54 8l-71 -38l72 -164c-44 15 -87 30 -130 46l-29 70l4 -61c-12 5 -24 9 -35 14c-6 -1 -9 -9 -6 -15c-14 -18 -4 -39 -16 -58c-15 -6 -31 -5 -47 -4zM340 114l38 -88l-97 -45l-72 179c43 -15 87 -32 131 -46z" />
    <glyph glyph-name="s" unicode="s" horiz-adv-x="448" 
d="M276 386c7 -1 13 -3 19 -5c16 -20 33 -42 50 -65l-84 13zM360 324c-22 30 -41 61 -56 93c-5 2 -10 0 -15 -4l-6 1l20 73l-91 -28l-10 -30c-24 5 -47 10 -71 14c-10 12 -17 26 -23 40l14 42l220 68l77 -97zM99 456c23 -42 48 -84 70 -126l-21 -65l24 1
c-5 -7 -4 -19 -4 -26c11 -23 24 -46 38 -68l-130 -8l-41 95zM246 175c-3 2 -7 4 -12 4c-18 20 -28 47 -38 72c2 10 10 14 16 18l104 6l58 -22l28 -182c-11 18 -22 36 -33 55c-28 8 -59 17 -88 26l-3 24zM295 117c19 -5 38 -13 56 -24c7 -11 22 -10 31 -19
c6 -11 13 -22 20 -33l-43 -43l-44 -5c-1 1 -1 3 -1 5c-18 27 -30 56 -43 84l28 3zM246 97c13 -30 25 -60 43 -88c0 -1 0 -1 1 -2l-176 -19l-95 20l32 93l58 -19zM191 339c-10 16 -20 32 -29 48l3 1c13 -2 26 -4 39 -7z" />
    <glyph glyph-name="t" unicode="t" horiz-adv-x="331" 
d="M271 451l-46 -4l3 -109c-13 24 -26 49 -37 73c-11 20 -28 40 -29 61c33 -1 69 -10 104 -18c2 -1 3 -2 5 -3zM227 19l-112 -13l-6 456l-91 -8l-3 88l84 8c5 -10 10 -20 15 -28c7 -7 -1 -18 11 -20c28 -61 56 -110 86 -171c3 -6 5 -12 7 -18zM120 552l196 19l-1 -91l-31 -3
c-3 3 -7 6 -8 9c-4 7 -4 12 -11 18c-6 0 -15 4 -15 -6c-37 3 -66 13 -97 25c-13 -8 -16 8 -25 13c-3 5 -6 10 -8 16z" />
    <glyph glyph-name="u" unicode="u" horiz-adv-x="443" 
d="M164 248c-11 15 -21 31 -29 47c11 2 22 2 34 2zM67 548l104 -4l-19 -209c-17 2 -34 -6 -51 0c-19 15 -20 38 -37 54c-3 4 -7 5 -11 6zM50 361c3 0 6 0 9 -1c30 -39 57 -80 85 -120l-8 -91l43 -38l51 4c11 -17 23 -34 32 -51c8 2 18 0 24 6c39 1 67 24 102 38l3 -2
l-40 -88l-248 -19l-73 123zM404 133c-8 0 -20 2 -22 -5l-95 -36l-19 2c-6 8 -11 15 -16 22l27 3l25 63l-11 196c36 -11 72 -24 108 -37l10 -193zM400 363c-37 12 -73 25 -108 39l-9 153l106 10z" />
    <glyph glyph-name="v" unicode="v" horiz-adv-x="377" 
d="M9 544l110 13l39 -185c-20 -1 -40 3 -62 -1c-17 7 -33 0 -49 1zM62 302c19 -27 38 -55 59 -81c21 -40 53 -79 76 -118c7 2 17 0 23 5c26 1 47 12 69 23l-21 -113l-139 -21zM294 158l-73 -27l-19 2c-28 41 -60 79 -82 124l-4 1c-22 30 -49 61 -64 94c11 2 22 2 34 2
c26 0 52 -2 76 -1l36 -173l39 234c33 -11 66 -23 99 -35zM340 399l-99 36l21 126l110 10z" />
    <glyph glyph-name="w" unicode="w" horiz-adv-x="515" 
d="M320 368c-22 8 -44 16 -66 25c-6 -1 -8 -9 -6 -15c-14 -18 -3 -39 -15 -58c-10 -3 -20 -4 -30 -4c-11 0 -22 1 -34 1l29 138l96 16zM13 535l110 16l24 -236h-1c-21 8 -41 -5 -61 3c-19 15 -20 38 -37 54c-3 5 -9 6 -14 5zM38 344c2 0 4 -1 5 -1c45 -58 82 -120 128 -178
c14 -27 33 -53 51 -80l-15 -63l-124 -20zM228 110c-21 29 -42 58 -58 91l-4 1c-22 30 -49 61 -65 94c16 2 32 2 47 2l6 -53l11 53c20 -1 40 -2 58 0l13 -4c8 1 18 -4 22 7c2 23 7 42 12 62c19 -6 38 -12 56 -18l36 -139l8 123c34 -12 68 -24 102 -35l-28 -243
c-18 21 -35 42 -52 64c-7 0 -24 4 -26 -4l-79 -30l-35 129zM279 43c28 7 51 24 79 35l6 -4c14 -19 30 -37 47 -54l-119 -27zM474 314c-34 12 -69 24 -103 36l14 205l119 18z" />
    <glyph glyph-name="x" unicode="x" horiz-adv-x="367" 
d="M217 487l33 75l98 -33l-32 -75l-6 6c-21 -2 -52 -20 -70 0c-8 8 -15 18 -23 27zM118 -1l-107 27l44 99c17 5 34 10 51 2c11 -23 24 -47 37 -70zM64 145l58 130l-103 250l91 48l71 -167l27 60l18 -25v-9c3 -6 10 -6 16 -5c20 5 41 16 62 6l1 -3l-68 -156l90 -211v-11
c-4 0 -9 -2 -12 -5c-35 6 -71 13 -106 20l-30 72l-26 -58c-14 19 -23 43 -33 64l-8 9c-14 -1 -32 -10 -48 -9zM318 7l-58 -37l-22 53c27 -5 54 -10 80 -16z" />
    <glyph glyph-name="y" unicode="y" horiz-adv-x="336" 
d="M203 497l25 85l102 -13l-40 -134c-16 -4 -32 -6 -44 6c-15 17 -30 36 -43 56zM244 14l-112 -8l-5 224l-121 281l94 46l81 -168l23 77l37 -50v-9c3 -7 11 -7 17 -5c11 2 23 7 35 9l-59 -195z" />
    <glyph glyph-name="z" unicode="z" horiz-adv-x="406" 
d="M226 104l133 16c5 -7 10 -15 15 -22l9 -96l-130 -12c-5 5 -9 9 -17 9c-18 19 -28 47 -38 72c4 18 27 16 28 33zM69 426l-14 116l301 34l25 -124l-129 -192c-39 8 -79 16 -118 23l111 171zM252 230l-40 -59c-15 24 -30 47 -44 72l3 2c28 -5 55 -10 81 -15zM179 153
l-24 -36l39 5c-1 -4 -8 -7 -11 -9c-17 -3 -15 -22 -15 -33c12 -25 27 -49 42 -73l-155 -15l-39 111l103 158c20 -36 41 -72 60 -108z" />
    <glyph glyph-name="numbersign" unicode="#" horiz-adv-x="549" 
d="M253 26l-113 -12l-1 115l-85 -1l-18 103l102 3l-1 36c14 -28 29 -56 45 -83c15 -42 42 -84 59 -126h11zM137 310c-3 5 -5 11 -6 17c40 0 82 -13 120 -14l3 -1l-10 -1l3 -73l72 3l-1 71h-32c6 22 13 40 21 59c39 -19 79 -39 118 -60l2 -67l73 3l11 -113l-80 -1l2 -89
c-13 21 -26 43 -38 65c-7 0 -24 7 -27 -1l-48 -11v35l-70 -1l1 -42l-1 1c-22 44 -49 86 -64 134l-4 1c-15 28 -33 56 -45 85zM117 310l-63 -1l-12 71c12 5 26 6 37 1c14 -23 26 -47 38 -71zM85 413l50 2l-1 130l103 22l4 -148l75 2l-1 124l103 22l4 -142l78 3l11 -113h-48
c-57 28 -113 57 -168 87c-6 0 -10 -7 -8 -13c-16 -17 -9 -39 -23 -56c-29 -6 -55 8 -87 7c-20 11 -41 1 -60 11c-17 17 -15 40 -29 58c-1 2 -2 3 -3 4zM415 24l-94 -10v57c16 5 33 12 51 16l5 -4c11 -20 24 -40 38 -59z" />
    <glyph glyph-name="bar" unicode="|" horiz-adv-x="213" 
d="M165 -40l-112 -16l-4 381c4 -1 7 -1 11 -1c11 11 30 19 46 13c18 -23 35 -48 52 -72zM49 363l-3 252l103 27l8 -331c-3 0 -6 1 -9 2c-19 15 -20 37 -37 54c-8 10 -24 2 -35 2c-10 1 -18 -9 -27 -6z" />
    <glyph glyph-name="percent" unicode="%" horiz-adv-x="672" 
d="M180 -14l-101 52l123 178l-161 60l-8 205l12 9c10 -18 20 -35 30 -53c5 -1 7 -7 6 -12c3 -6 13 -10 21 -8c11 11 30 18 46 13c4 -5 8 -11 12 -16l-4 -42l24 -23l19 10c25 -36 49 -72 76 -107c21 -40 53 -78 76 -117c8 2 17 0 23 5c24 1 44 10 64 20l17 -16l38 18
c28 -34 60 -65 92 -97l-80 -65l-189 70l-4 113zM87 458l-29 41l123 85l160 -49l8 -74c-8 -17 -1 -36 -12 -53c-10 -4 -20 -4 -30 -4c-18 0 -36 3 -57 -2c-6 3 -12 4 -18 4l2 24l-28 19l-33 -22c-6 11 -10 23 -20 33c-9 10 -24 2 -35 1c-11 2 -20 -11 -31 -3zM379 473l81 117
l100 -37l-79 -117c-34 12 -68 24 -102 37zM470 418l-39 -56l25 17l160 -50l25 -218l-40 -33c-33 37 -64 74 -94 112l3 34l-29 19l-45 -29l-3 -30l-58 -21l-19 1c-28 41 -60 80 -81 125l-5 1c-18 25 -39 50 -55 77l14 7l1 12c33 1 67 -4 98 0l13 -4c7 0 18 -4 21 7
c3 23 7 42 12 62c32 -10 64 -21 96 -33z" />
    <glyph glyph-name="slash" unicode="/" horiz-adv-x="505" 
d="M373 339l-56 -83c-15 11 -32 18 -43 30c19 24 49 39 74 58l4 6c7 -4 14 -8 21 -11zM118 -14l-102 52l192 277c25 -18 51 -35 77 -48c5 -3 10 -7 14 -10zM234 315l-18 12l182 263l99 -37l-124 -185c-5 3 -11 7 -17 10c-15 4 -20 21 -36 22c-11 -16 -15 -37 -34 -47
c-3 -6 -16 -5 -16 -15c-11 -13 -28 -10 -36 -23z" />
    <glyph glyph-name="backslash" unicode="\" horiz-adv-x="484" 
d="M242 180l-57 82c16 10 29 24 44 29c15 -26 18 -60 27 -90l4 -6c-6 -5 -13 -10 -18 -15zM7 546l86 76l187 -280c-26 -17 -51 -34 -73 -54c-4 -3 -10 -7 -14 -9zM271 318l17 12l178 -265l-70 -79l-127 183c5 4 11 8 15 12c10 13 27 11 34 26c-11 16 -29 27 -31 49
c-5 5 1 16 -8 20c-8 15 1 30 -8 42z" />
    <glyph glyph-name="asciicircum" unicode="^" horiz-adv-x="388" 
d="M319 457l49 -59l-27 -19l-2 1c-26 21 -22 60 -38 84c7 -2 13 -4 18 -7zM102 276l-86 87l56 67c0 -19 -9 -42 -20 -54c7 -3 -4 -9 0 -15c29 -14 54 -33 78 -54zM98 472l50 59c40 -19 82 -43 122 -60c9 -34 20 -69 32 -104c5 -3 9 -6 14 -10l-71 -48l-53 78l-41 -45
c-19 16 -38 31 -59 45l-6 10c6 20 18 38 28 56c1 5 -1 11 -6 12c-3 2 -6 5 -10 7zM162 547l38 45l90 -110c-43 21 -86 44 -128 65z" />
    <glyph glyph-name="ampersand" unicode="&#x26;" horiz-adv-x="484" 
d="M191 225c-21 28 -45 56 -59 87c12 2 24 2 36 2c29 0 59 -3 86 0l13 -4c7 1 18 -3 21 7c2 14 4 27 7 39l28 -26l-30 -100zM365 562l-10 -109l-180 2l92 -83c-3 -14 0 -28 -9 -42c-10 -3 -19 -4 -29 -4c-18 0 -38 3 -58 -1c-7 3 -15 3 -22 3l-108 117l43 110zM93 321
c24 -34 47 -69 71 -103l-22 -1v-29l19 -61l76 -16c12 -18 25 -36 35 -53c8 1 17 0 23 5c39 1 67 24 103 38l6 -4c14 -19 30 -37 47 -54l2 -35l-112 -7l-1 43l-99 -49l-163 48l-46 137l26 136zM449 86c-11 13 -21 26 -31 39c-7 0 -24 5 -26 -4l-96 -36l-19 2l-21 30l81 44
l-3 124l103 11z" />
    <glyph glyph-name="one" unicode="1" horiz-adv-x="258" 
d="M107 336v82l-38 -28l-56 70l90 85l103 22l5 -190c-18 10 -36 19 -54 29c-6 0 -10 -7 -8 -13c-16 -17 -9 -39 -23 -56c-7 -1 -13 -2 -19 -1zM197 8l-112 -13v51c6 0 12 -1 17 2c34 -4 62 11 94 21zM109 99l-1 218h5l13 -6c7 -1 17 -6 22 4c6 23 13 41 20 60
c15 -7 30 -14 44 -21l7 -245l-88 -20l-19 4z" />
    <glyph glyph-name="two" unicode="2" horiz-adv-x="432" 
d="M274 110l119 4l2 -104l-61 -4c-23 19 -46 38 -72 56l-6 10c5 13 11 26 18 38zM77 303h-1l-7 29c18 17 31 39 50 55c0 4 1 10 6 14c-11 38 -42 66 -74 92l94 86l173 -17l80 -147l-34 -163l-32 -30c-20 10 -40 20 -60 29c-5 4 -16 13 -25 9c-3 -8 -14 -11 -22 -16
c-8 -1 -17 -2 -25 -3l47 44l40 113l-33 62l-71 6l-34 -17l27 -111zM54 343l-30 123l2 1c21 -18 41 -38 57 -60c-1 -6 2 -13 2 -21c-7 -16 -18 -30 -31 -43zM330 196l-58 -53c-27 19 -53 40 -76 61c24 2 49 17 74 15c3 -3 6 -4 11 -3c16 -5 32 -12 49 -20zM243 141l-36 -33
l41 1c-3 -15 -10 -29 -18 -38c7 -3 -4 -9 0 -15c28 -14 52 -32 76 -52l-221 -16l-29 120l106 97c29 -19 53 -42 81 -64z" />
    <glyph glyph-name="three" unicode="3" horiz-adv-x="419" 
d="M172 244l-49 -6l-36 95l22 25c21 -38 43 -76 63 -114zM52 433l-16 106l281 40l50 -101l-102 -135l93 5l33 -131l-4 -16c-30 38 -58 81 -77 122c-5 3 -11 0 -15 -4c-52 9 -105 21 -158 31c-1 1 -2 2 -3 4l98 111zM381 180l-28 -107l-45 -21l-36 12l-2 4
c-11 -1 -15 19 -30 17c-10 11 -18 25 -24 39l49 19l16 63l-2 29l-69 -8c-18 29 -36 57 -53 87l2 2c49 -9 96 -16 142 -28c26 -34 56 -71 80 -108zM293 36l-29 -13c-3 7 -7 14 -11 21l2 2c13 -3 26 -6 38 -10zM243 22l-50 -23l-153 47l41 104l103 -39l7 3
c13 -25 29 -49 42 -72c4 -6 7 -13 10 -20z" />
    <glyph glyph-name="four" unicode="4" horiz-adv-x="411" 
d="M330 20l-113 -13l-2 177l-195 -28l34 212c4 -1 9 -2 13 -1c11 10 31 18 46 13c14 -18 27 -35 39 -54l-6 -43l33 4c20 -29 40 -57 62 -85c21 -40 53 -78 75 -117c4 0 8 0 12 1zM60 405l24 143l102 16l-30 -209s-1 0 -1 1c-19 14 -20 37 -37 53c-8 11 -24 3 -34 2
c-9 1 -16 -6 -24 -6zM198 289l16 2l-1 44c15 0 32 -1 47 -1c12 0 22 1 33 2l13 -5c5 1 10 0 14 0l1 -26l64 9l-2 -107l-59 -8l3 -85h-5c-28 41 -60 79 -82 124l-4 1c-12 17 -26 33 -38 50zM213 353l-3 186l103 21l4 -137c0 -2 0 -4 1 -6v-2c-13 -18 -3 -39 -15 -58
c-10 -3 -19 -4 -29 -4c-18 0 -38 3 -58 -1c-1 1 -2 1 -3 1z" />
    <glyph glyph-name="five" unicode="5" horiz-adv-x="409" 
d="M224 115c3 -6 7 -12 10 -17c8 2 17 0 23 5c39 1 67 24 103 38l6 -3c3 -5 7 -9 11 -14l2 -30l-87 -73l-153 -49l-108 57l40 93l71 -39zM328 577l-7 -109l-171 -11l-2 -77h76c-1 -3 -2 -6 -4 -9c-11 -4 -21 -5 -32 -5c-18 0 -36 3 -55 -1c-21 9 -41 -4 -61 4
c-16 13 -19 32 -31 47l7 145zM47 359c32 -43 61 -88 93 -132l-36 -18l-62 56zM150 257c-21 29 -46 58 -61 89c13 2 27 3 41 3c17 0 34 -1 51 -1c10 0 19 0 29 1l13 -4c8 0 19 -4 22 7c1 10 3 19 4 28h19l100 -100l6 -114c-8 1 -19 2 -20 -5l-96 -35h-5l8 3l5 100l-71 51z
" />
    <glyph glyph-name="six" unicode="6" horiz-adv-x="463" 
d="M414 77c-24 6 -48 14 -72 22l-2 4c-11 -1 -15 19 -30 17c-1 2 -3 3 -4 5l-2 65l-29 -4l-3 7c4 18 30 15 28 36c-13 22 -26 43 -39 64l98 18l73 -99zM393 422l-104 -41l-27 73l-60 -5l-16 -29c-6 11 -10 22 -15 33l-8 8c-22 -1 -52 -20 -71 0c-2 2 -4 5 -6 7l55 97l196 2z
M75 448l3 -5v-9c3 -7 11 -7 16 -5c20 5 42 16 62 6c6 -12 12 -25 19 -37l-14 -124l75 14c11 -19 22 -39 31 -58c9 -9 -3 -13 -8 -16c-17 -3 -16 -21 -15 -32l-40 -5l-31 -9l14 -43l34 -20l59 11l24 -39c10 -19 18 -39 27 -59l-185 -29l-111 160l17 259zM353 4
c-10 22 -18 43 -29 64l1 2c34 -8 65 -15 94 -32l-3 -24z" />
    <glyph glyph-name="seven" unicode="7" horiz-adv-x="391" 
d="M296 285l-112 -279l-102 36l85 214c3 -4 6 -8 8 -13c8 2 17 0 24 6c37 0 64 22 97 36zM17 518l-5 33l138 13c-2 -14 0 -28 -8 -42c-10 -3 -19 -4 -29 -4c-19 0 -38 3 -58 -1c-13 5 -26 2 -38 1zM247 565l80 7l23 -44c-35 12 -69 24 -103 37zM363 502l12 -22l-68 -168
c-6 0 -11 -1 -12 -5l-96 -36l-19 2c-1 2 -2 4 -4 5l73 183l-184 -25c-7 11 -15 21 -22 32l-4 25c38 4 77 -3 113 1l13 -4c7 1 18 -4 21 7c3 23 7 42 13 62c55 -17 109 -38 164 -57z" />
    <glyph glyph-name="eight" unicode="8" horiz-adv-x="528" 
d="M223 466l-39 -61l53 -26l56 7l46 41l-39 39h-77zM500 146c-10 7 -23 12 -29 22c-17 17 -43 25 -58 41c19 24 49 39 74 58l1 1zM104 276c30 -25 56 -51 81 -79l-28 -27l-2 -53l78 -31l111 9l22 44l-8 60l-72 34l-16 -3c4 9 8 17 13 26l6 2c43 -28 85 -62 130 -84
c26 -16 46 -38 68 -54l2 -17l-56 -107l-280 -19l-126 101l7 143zM387 579l63 -53l3 -145l-83 -61l73 -34c-6 -10 -11 -20 -23 -26c-3 -6 -15 -5 -16 -15c-11 -13 -28 -9 -36 -23l-48 34c-17 8 -27 46 -51 24c-3 -3 -3 -8 0 -11c-8 -13 -13 -28 -19 -43l-44 -10l-10 -9
c-26 26 -51 53 -79 79l28 22l-84 66l5 89l82 107z" />
    <glyph glyph-name="nine" unicode="9" horiz-adv-x="466" 
d="M73 141l104 41l27 -72l60 5l27 46v6c18 5 35 12 53 17l6 -4c12 -22 26 -43 41 -64l-66 -117l-196 -3zM406 141c-13 21 -26 43 -39 64c-7 1 -23 8 -26 -1l-47 -10l11 95l-124 -23c-9 18 -16 36 -22 54l-5 2c-17 33 -40 67 -51 101c19 1 39 -2 58 -5l1 -44l100 13l31 8
l-14 44l-9 5l9 24c51 -24 100 -51 151 -76l-16 -236zM431 414c-55 28 -110 56 -163 85c-6 0 -10 -7 -8 -14c-9 -8 -11 -18 -13 -28l-2 1l-85 -15v-7c-3 1 -7 1 -10 0c-20 12 -41 2 -60 12c-17 17 -15 40 -29 58c-1 3 -3 4 -6 5l3 22l262 42l111 -160v-1zM51 478h1
c36 -63 65 -130 103 -194c2 -7 5 -14 8 -21l-56 -10l-73 99z" />
    <glyph glyph-name="asterisk" unicode="*" horiz-adv-x="466" 
d="M225 202l-45 -3l-2 97l-69 -50l-70 88l91 63l-94 59l23 32c19 5 39 14 59 5c34 -69 77 -138 111 -205c9 -9 -3 -13 -8 -16c-18 -3 -16 -22 -15 -33c6 -12 12 -25 19 -37zM75 510l27 38l72 -48l-1 85l103 16l4 -101l78 53l69 -77l-84 -61l-1 1c-5 3 -11 0 -15 -4
c-52 9 -105 21 -158 31c-17 19 -26 45 -36 68l-9 8c-14 -1 -33 -10 -49 -9zM363 376l67 -44l-20 -26c-17 23 -33 46 -47 70zM399 293l-35 -41l-76 47l4 -91l-38 -3c-8 14 -14 30 -20 46c4 19 30 15 27 36c-23 41 -49 79 -72 120l2 2c49 -9 96 -16 142 -28
c21 -28 45 -58 66 -88z" />
    <glyph glyph-name="parenleft" unicode="(" horiz-adv-x="344" 
d="M212 650l103 -62l-103 -119l-45 -181l16 -51c-19 0 -38 3 -59 -1c-21 9 -41 -4 -61 3c-6 6 -11 12 -14 18l-14 68l58 185zM57 216c30 -43 59 -88 92 -130c21 -40 53 -78 76 -117c8 1 17 0 23 5c24 0 43 9 63 19l4 -5l-99 -74l-131 160zM295 13l-46 -17l-19 2
c-28 41 -60 79 -82 124l-4 1c-22 31 -48 61 -64 94c12 2 24 2 37 2c24 0 49 -2 72 -1l35 -115z" />
    <glyph glyph-name="parenright" unicode=")" horiz-adv-x="346" 
d="M142 -86l-103 62l103 119l45 181l-16 51c19 0 38 -3 58 1c21 -9 41 4 61 -3c7 -6 11 -12 15 -18l13 -68l-57 -185zM297 348c-30 43 -59 88 -93 130c-21 40 -53 78 -75 118c-8 -2 -18 0 -24 -6c-23 0 -43 -9 -62 -19l-4 5l98 74l132 -160zM59 551l45 17l20 -2
c27 -41 59 -79 81 -124l4 -1c22 -30 49 -61 65 -94c-12 -2 -25 -2 -38 -2c-24 0 -48 2 -71 1l-36 115z" />
    <glyph glyph-name="bracketleft" unicode="[" horiz-adv-x="315" 
d="M268 687l16 -107l-107 -8v-103c-41 7 -82 15 -123 23l-1 195h215zM55 463c41 -8 82 -14 122 -23v-232c-4 1 -7 2 -10 3l-3 4c-10 -1 -15 19 -29 17c-19 20 -28 47 -38 73c4 19 29 15 27 36c-22 39 -47 76 -69 115v7zM55 411c13 -23 25 -46 37 -69c9 -8 -4 -13 -8 -16
c-18 -3 -16 -22 -15 -33c16 -36 40 -71 59 -104c18 -34 30 -71 49 -105v-92l99 -4v-107h-219zM177 115c-13 27 -24 55 -37 81l1 2l36 -9v-74z" />
    <glyph glyph-name="bracketright" unicode="]" horiz-adv-x="299" 
d="M37 -119l-16 107l108 8v104c40 -8 81 -16 122 -24l1 -195h-215zM251 105c-42 8 -83 14 -122 23v233c3 -1 6 -3 9 -4l3 -4c11 1 15 -19 30 -17c18 -20 28 -47 38 -73c-5 -19 -30 -15 -28 -36c22 -39 47 -75 70 -114v-8zM250 158c-13 23 -25 45 -37 68c-9 9 4 13 9 16
c17 3 15 22 15 33c-17 36 -41 71 -60 104c-17 34 -30 71 -48 105v92l-100 4v107h219zM129 453c12 -27 23 -54 37 -81l-2 -2c-12 3 -24 6 -35 9v74z" />
    <glyph glyph-name="less" unicode="&#x3c;" horiz-adv-x="391" 
d="M247 634l120 -62l-96 -145c-16 8 -32 17 -47 26c-7 0 -10 -8 -8 -14c-17 -16 -9 -38 -24 -56c-28 -5 -55 9 -86 7c-3 1 -5 2 -7 3zM88 375c31 -3 63 -11 92 -12l12 -6c8 0 18 -6 23 4c5 23 12 41 20 60c8 -3 17 -7 25 -11l-91 -138l88 -123l-60 -13l-18 4
c-22 44 -49 86 -65 134l-4 1c-12 24 -28 48 -39 73zM60 331c16 -31 32 -63 50 -93c16 -43 42 -85 59 -127c8 1 18 -2 24 2c29 -3 53 7 78 16l92 -129l-116 -74l-226 342z" />
    <glyph glyph-name="greater" unicode="&#x3e;" horiz-adv-x="409" 
d="M157 -74l-120 62l96 145c16 -9 32 -17 47 -26c6 0 10 8 8 14c17 16 9 38 24 56c28 5 55 -9 86 -7c3 -1 5 -2 7 -3zM316 185c-31 3 -63 11 -92 12l-12 6c-8 0 -18 6 -23 -4c-6 -23 -12 -41 -20 -60c-8 3 -17 7 -25 11l91 138l-88 123l60 13l18 -4c22 -44 49 -86 65 -134
l4 -1c12 -24 27 -48 39 -73zM344 229c-16 31 -32 63 -50 93c-16 43 -42 85 -60 127c-8 -1 -17 2 -23 -2c-29 3 -53 -7 -78 -16l-92 129l116 74l226 -342z" />
    <glyph glyph-name="braceright" unicode="}" horiz-adv-x="310" 
d="M52 -119l-16 107l107 4l4 156l-1 3l24 -9c6 1 8 8 6 15c14 18 3 39 15 58c16 5 32 4 49 3l29 -70l1 -267h-218zM232 238c-11 0 -21 0 -31 -2l-13 5c-8 -1 -18 3 -22 -7c-2 -24 -7 -43 -12 -63c-7 3 -15 5 -22 7l-47 94l58 119v65l10 4l19 -2c25 -36 53 -71 74 -109
l-31 -69zM255 368l-2 2c-21 40 -53 78 -75 117c-8 -1 -18 0 -24 -5c-4 0 -7 0 -11 -1v95l-99 4v107h226l2 -284z" />
    <glyph glyph-name="braceleft" unicode="{" horiz-adv-x="307" 
d="M264 687l16 -107l-107 -4l-5 -156l2 -3l-24 9c-6 0 -9 -8 -6 -14c-14 -19 -4 -39 -16 -59c-16 -5 -32 -4 -49 -3l-28 70l-2 267h219zM83 330c11 0 21 1 31 2l13 -5c8 1 19 -3 22 7c3 24 7 43 12 63c8 -2 15 -5 22 -7l47 -94l-57 -119v-65l-11 -3l-19 1
c-25 37 -53 71 -74 110l32 68zM60 201l2 -3c21 -40 53 -78 76 -117c8 1 17 0 23 5c4 0 8 0 12 1v-95l99 -4v-107h-227l-1 284z" />
    <glyph glyph-name="dollar" unicode="$" horiz-adv-x="443" 
d="M360 324c-22 30 -41 61 -56 93c-5 2 -10 0 -15 -4l-6 1l20 73l-91 -28l-10 -30c-24 5 -47 10 -71 14c-10 12 -17 26 -23 40l14 42l102 31v103h70v-81l48 15l77 -97zM246 97c13 -30 25 -60 43 -88c0 -1 0 -1 1 -2l-19 -2v-122h-70v115l-87 -10l-95 20l32 93l58 -19z
M99 456c23 -42 48 -84 70 -126l-21 -65l24 1c-5 -7 -4 -19 -4 -26c11 -23 24 -46 38 -68l-130 -8l-41 95zM246 175c-3 2 -7 4 -12 4c-18 20 -28 47 -38 72c2 10 10 14 16 18l104 6l58 -22l28 -182l-33 55l-88 26l-3 24zM295 117c19 -5 38 -13 56 -24c7 -11 22 -10 31 -19
c6 -11 13 -22 20 -33l-43 -43l-44 -5c-1 1 -1 3 -1 5c-18 27 -30 56 -43 84l28 3zM276 386c7 -1 13 -3 19 -5c16 -20 33 -42 50 -65l-84 13zM191 339c-10 16 -20 32 -29 48l3 1c13 -2 26 -4 39 -7z" />
    <glyph glyph-name="comma" unicode="," horiz-adv-x="211" 
d="M44 82v51l120 5l-18 -209c-35 49 -70 95 -99 148c-1 2 -2 3 -3 5zM126 -72l-82 -4v120c27 -39 55 -78 82 -116z" />
    <glyph glyph-name="semicolon" unicode=";" horiz-adv-x="206" 
d="M44 82v51l120 5l-18 -209c-35 49 -70 95 -99 148c-1 2 -2 3 -3 5zM126 -72l-82 -4v120c27 -39 55 -78 82 -116zM47 212l-6 104l50 9c10 -35 25 -68 37 -103zM116 329l44 8l4 -111l-16 -2c-13 34 -21 70 -32 105z" />
    <glyph glyph-name="ellipsis" unicode="&#x2026;" horiz-adv-x="614" 
d="M556 138l6 -104l-50 -12c-10 35 -25 67 -37 102zM487 17l-44 -10l-4 111l16 3c13 -34 21 -69 32 -104zM57 -1l-6 104l50 9c10 -35 25 -68 37 -103zM126 116l44 8l4 -111l-16 -2c-13 34 -21 70 -32 105zM245 5l-6 103l119 22l4 -112z" />
    <glyph glyph-name="colon" unicode=":" horiz-adv-x="224" 
d="M57 -1l-6 104l50 9c10 -35 25 -68 37 -103zM126 116l44 8l4 -111l-16 -2c-13 34 -21 70 -32 105zM60 185l-6 103l119 22l4 -112z" />
    <glyph glyph-name="space" unicode=" " horiz-adv-x="263" 
 />
    <glyph glyph-name="zero" unicode="0" horiz-adv-x="489" 
d="M411 90c-24 21 -48 41 -76 59l-5 10c6 20 17 38 28 56c1 5 -1 11 -6 12c-3 2 -5 4 -8 5l-4 82c33 -11 68 -29 103 -47l7 -58zM245 579l161 -117l18 -156c-32 16 -63 32 -95 47c-1 1 -4 3 -7 5v16l-90 93l-55 -21l-22 -60l-35 31l5 15c19 18 32 40 51 57c0 4 1 10 6 13
c-6 21 -17 38 -31 54zM126 549c9 -9 17 -19 25 -28c-2 -7 1 -13 2 -21c-13 -26 -34 -48 -59 -65l-7 -16c1 -23 26 -27 39 -41c6 -6 12 -12 19 -18l-10 -24l5 -155l69 -76l93 33l3 10c30 -18 56 -41 83 -64l-14 -42l-199 -46l-142 158l3 220l62 168z" />
    <glyph glyph-name="underscore" unicode="_" horiz-adv-x="489" 
d="M42 5l-5 105l111 7c12 -28 24 -55 40 -81c4 -6 5 -13 6 -20zM163 117l100 5c2 -2 5 -3 7 -5c19 -31 38 -61 57 -92l-113 -8c-5 8 -13 16 -12 24c-17 25 -28 51 -39 76zM286 123l161 9l9 -98l-109 -8c-19 33 -41 64 -61 97z" />
    <glyph glyph-name="grave" unicode="`" horiz-adv-x="250" 
d="M63 608l-39 33l53 70l148 -148c-60 5 -97 32 -157 44c-2 1 -3 0 -5 1zM213 547l-30 -41l-91 78c47 -5 74 -33 121 -37z" />
    <glyph glyph-name="trademark" unicode="&#x2122;" horiz-adv-x="526" 
d="M154 531l1 -39c-9 12 -19 24 -25 37c8 2 16 2 24 2zM154 372l-58 -7l-3 196c1 0 1 0 2 -1c20 -25 37 -52 56 -78zM93 579v23l-46 -4l-2 3l-1 42l156 16v-48l-53 -4l2 -61h-1c-11 5 -21 -2 -31 2c-10 8 -11 19 -19 28c-2 2 -3 2 -5 3zM478 377l-54 -10l-5 114l9 -6
c2 -19 4 -37 7 -57c14 -15 28 -28 43 -41zM288 369l-57 -7l-2 280l46 6s1 -1 1 -2c-1 -3 -1 -7 -1 -11c-9 -12 -22 -21 -36 -27l-5 -8c-2 -11 11 -16 16 -24c9 -14 22 -27 33 -38c18 -15 31 -33 46 -51c1 -10 -8 -25 -15 -31c3 -3 -3 -4 -2 -8c21 -15 36 -36 52 -57l-40 -7
l-40 110zM299 647l6 1l38 -105c-1 -1 -2 -1 -3 -1c-15 0 -29 1 -41 5l-36 46l4 7c11 8 20 18 32 24c0 3 1 6 4 7c-1 5 -2 11 -4 16zM333 536l15 -42l11 31c16 -11 33 -24 49 -36l-28 -94l-4 -1c-15 18 -29 37 -47 54l-2 6c5 9 13 18 20 26c0 2 0 6 -2 7
c-16 15 -30 30 -43 47c10 -1 21 2 31 2zM363 535l40 113l65 4l9 -201c-20 14 -40 29 -59 43l-1 23l-6 -18c-16 13 -32 25 -48 36zM483 431l2 -49c-9 9 -18 18 -27 28c-12 14 -6 33 -12 46c14 -7 24 -15 37 -25z" />
    <glyph glyph-name="quotedbl" unicode="&#x22;" horiz-adv-x="383" 
d="M220 462v110l121 5l-18 -193c-13 21 -27 42 -45 63c0 11 -3 20 -13 25l-6 -5c-12 -1 -25 -3 -39 -5zM311 367l-91 -4v81c15 0 30 -3 43 -12c16 -22 33 -43 48 -65zM48 526v46l121 5l-7 -77l-6 19c-8 10 -17 6 -27 0c-26 2 -55 0 -81 7zM157 437l-7 -69l-102 -5v138
c11 0 22 -2 32 -3c19 -6 49 4 58 -16c6 -15 12 -30 19 -45z" />
    </font>
</defs>
</svg>
