<svg xmlns="http://www.w3.org/2000/svg" viewBox="0 0 1636.67 629.97"><defs><style>.cls-1{fill:red;}.cls-2,.cls-3,.cls-4{stroke:#fff;}.cls-2,.cls-4{stroke-miterlimit:10;}.cls-2,.cls-3{stroke-width:5px;}.cls-3{stroke-miterlimit:10;}.cls-4{fill:none;stroke-linecap:square;stroke-width:15px;}.cls-5{isolation:isolate;}.cls-6{fill:#fff;}</style></defs><title>Asitron</title><g id="Слой_2" data-name="Слой 2"><g id="Набросок"><g id="Logo"><g id="ЛогоV2"><g id="Сгруппировать_1" data-name="Сгруппировать 1"><path id="Контур_3" data-name="Контур 3" class="cls-1" d="M553.08,190.67a24.13,24.13,0,0,1,7.29-17.77,27,27,0,0,1,20.7-8.06h30.67a26.74,26.74,0,0,1,20.7,8.06,24.12,24.12,0,0,1,7.28,17.77V397.35c.2,14.29-11.69,26-26.64,26.2h-32.2a26.83,26.83,0,0,1-20.71-8.06,24.27,24.27,0,0,1-7.28-18.14Z"/><path id="Контур_4" data-name="Контур 4" class="cls-1" d="M717.55,397.9V231H680.17a18.6,18.6,0,0,1-13.23-6.78,20.81,20.81,0,0,1-5-13.92V185.36a21.85,21.85,0,0,1,5-13.93,18.6,18.6,0,0,1,13.23-6.78H842.34a18.6,18.6,0,0,1,13.22,6.78,21.68,21.68,0,0,1,5.18,13.93v24.92a21,21,0,0,1-5.18,13.92A18.6,18.6,0,0,1,842.34,231H805.15V397.9a25,25,0,0,1-7.67,17.4A26.31,26.31,0,0,1,777,423.36H745.53A26.87,26.87,0,0,1,725,415.3,25.58,25.58,0,0,1,717.55,397.9Z"/><path id="Контур_1" data-name="Контур 1" class="cls-2" d="M202.68,363.63l-1,33.72a26.92,26.92,0,0,1-28.18,26.2H142.87a27.9,27.9,0,0,1-21.08-8.06,23.14,23.14,0,0,1-7.1-18.14l7.86-148c3.84-31.33,12.46-53.13,25.88-65.59Q168.27,165,203.64,165H224q35.35,0,55.2,18.69C292.39,196.17,301,218.15,305,249.3l7.86,148.05a23.16,23.16,0,0,1-7.09,18.14,27.93,27.93,0,0,1-21.09,8.06H254.05a27.6,27.6,0,0,1-20.51-8.06,25.39,25.39,0,0,1-7.67-18.14l-1-33.72Zm4.79-103.15-2.68,48.19h17.63l-2.68-48.19c-.58-8.25-1.15-15-1.53-19.79a12.77,12.77,0,0,0-3.65-9.53h-1.91a12.77,12.77,0,0,0-3.65,9.53c-.19,4.76-.76,11.36-1.53,19.79Z"/><path id="Контур_2" data-name="Контур 2" class="cls-2" d="M403,423.55A101.2,101.2,0,0,1,367.72,416a54.74,54.74,0,0,1-23.38-18.69,68.53,68.53,0,0,1-10-33.35V342.75q2-17.6,18.4-18.69h49.65q16.38,1.37,18.4,18.69a15.93,15.93,0,0,0,4.6,12.46,6.59,6.59,0,0,0,9,.55l.57-.55a32.16,32.16,0,0,0,5-18.14,15.82,15.82,0,0,0-5.18-10.81c-3.26-2.94-15.53-7.33-36.61-12.83s-36.61-12.46-46.39-20.7-15.14-20.89-16.1-37.56a101.86,101.86,0,0,1,8.24-39,82,82,0,0,1,27.22-36.65,68.32,68.32,0,0,1,41.6-14.84h49.07a103.07,103.07,0,0,1,35.65,7.52,54.75,54.75,0,0,1,23.39,18.68,68.75,68.75,0,0,1,10,33.35v21.25c-1.35,11.73-7.48,18-18.21,18.69H462q-16.68-1.36-18.4-18.69c0-7-1.34-11-3.84-12.46a7.11,7.11,0,0,0-9.58-.36l-.38.36a35.66,35.66,0,0,0-4.22,18.14,15.75,15.75,0,0,0,5.18,10.81c3.25,2.94,15.52,7.33,36.61,12.83s36.61,12.46,46.39,20.7,15.33,20.89,16.29,37.57a109.69,109.69,0,0,1-8.44,39,82,82,0,0,1-27.21,36.65A67.4,67.4,0,0,1,453,423.55Z"/><path id="Контур_5" data-name="Контур 5" class="cls-2" d="M911.15,423.55a27.9,27.9,0,0,1-21.08-8.06,25.35,25.35,0,0,1-7.67-18.14V206.06a47.61,47.61,0,0,1,10-29.13q9.2-11.82,19.55-12.09H997.6a73.78,73.78,0,0,1,49.46,22,99.72,99.72,0,0,1,27.22,42.51A157,157,0,0,1,1080,275.5c-.58,25.65-8.63,44.34-24,56.25,14.56,16.86,23,38.66,25.11,65.6a23.14,23.14,0,0,1-7.1,18.14,26.38,26.38,0,0,1-20.51,8.06H1022.9a27.93,27.93,0,0,1-21.08-8.06,25.39,25.39,0,0,1-7.67-18.14c-2.49-20.89-5.75-35-9.77-42.51l-15,5.68v36.83a23.09,23.09,0,0,1-7.09,18.14,26.38,26.38,0,0,1-20.51,8.06Zm82.43-143.1V268c-.39-16.31-3.07-27.3-7.86-33.16a23.24,23.24,0,0,0-16.3-3.67V298h3.26c13.42-4,20.51-9.89,20.9-17.59Z"/><path id="Контур_6" data-name="Контур 6" class="cls-2" d="M1186.41,423.55a74.91,74.91,0,0,1-47.54-18.32A89.7,89.7,0,0,1,1112.42,364a174.44,174.44,0,0,1-8.24-48.55V272.94a181.75,181.75,0,0,1,8.24-48.56,91.36,91.36,0,0,1,26.45-41.22,75.91,75.91,0,0,1,47.54-18.32h32.78a74.81,74.81,0,0,1,47.54,18.32,89.73,89.73,0,0,1,26.45,41.22,174.52,174.52,0,0,1,8.25,48.56v42.51a181.69,181.69,0,0,1-8.25,48.55,91.25,91.25,0,0,1-26.45,41.23,75.87,75.87,0,0,1-47.54,18.32Zm20.9-68.16a47.75,47.75,0,0,0,5.56-18.32q1.73-11.82,2.3-23.64V274.77q-.59-11.82-2.3-23.64a47.75,47.75,0,0,0-5.56-18.32,6.24,6.24,0,0,0-8.44-.73c-.19.18-.57.37-.76.73a47.4,47.4,0,0,0-5.56,18.32q-1.72,11.82-2.3,23.64v38.66q.57,11.82,2.3,23.64a47.4,47.4,0,0,0,5.56,18.32,6.23,6.23,0,0,0,8.43.73A1.45,1.45,0,0,0,1207.31,355.39Z"/><path id="Контур_7" data-name="Контур 7" class="cls-2" d="M1351.84,423.55a27.6,27.6,0,0,1-20.51-8.06,25.35,25.35,0,0,1-7.67-18.14V191a26.92,26.92,0,0,1,28.18-26.2h25.49c15-.92,29,7.69,33.93,21.25l24.15,53.13V191a26.92,26.92,0,0,1,28.18-26.2h30.67c14.76-.74,27.41,10.07,28.18,24.18V397.35a26.92,26.92,0,0,1-28.18,26.2h-25.49c-15,.91-29-7.7-33.93-21.26l-24.15-53.13v48.19a26.92,26.92,0,0,1-28.18,26.2Z"/><ellipse id="Эллипс_1" data-name="Эллипс 1" class="cls-3" cx="596.59" cy="43.91" rx="43.32" ry="41.41"/></g><line id="Линия_2" data-name="Линия 2" class="cls-4" x1="7.5" y1="461.31" x2="1629.17" y2="461.31"/><line id="Линия_3" data-name="Линия 3" class="cls-4" x1="7.5" y1="121.07" x2="1629.17" y2="121.07"/></g><g class="cls-5"><path class="cls-6" d="M324.11,609.88q-22.51,0-35.74-13t-13.23-36.56q0-22.74,13.26-36.25t35.77-13.51a80.83,80.83,0,0,1,10.75.64,75,75,0,0,1,9.14,1.79,69.3,69.3,0,0,1,7.45,2.64q4,1.67,6.52,2.89V541.3h-2.55q-1.82-1.54-4.57-3.69a58.49,58.49,0,0,0-6.25-4.21,42.67,42.67,0,0,0-7.69-3.5,26.84,26.84,0,0,0-8.77-1.44,29.21,29.21,0,0,0-10,1.64,23.88,23.88,0,0,0-8.63,5.68,27.06,27.06,0,0,0-6.15,9.89,41,41,0,0,0-2.38,14.7,39.59,39.59,0,0,0,2.48,15,27.09,27.09,0,0,0,6.52,9.8,23.87,23.87,0,0,0,8.7,5.2,30,30,0,0,0,9.57,1.6,28.47,28.47,0,0,0,9.47-1.57,38.59,38.59,0,0,0,7.59-3.5,50.55,50.55,0,0,0,5.91-4c1.7-1.36,3.18-2.59,4.44-3.66H358v22.48l-6.38,2.79a60.12,60.12,0,0,1-7.46,2.67,85.42,85.42,0,0,1-8.8,2A70,70,0,0,1,324.11,609.88Z"/><path class="cls-6" d="M372.81,608v-95.6h67.64v18.23H397.8V547.4h39.29v18.24H397.8v24.14h42.65V608Z"/><path class="cls-6" d="M534.43,542.59a36.51,36.51,0,0,1-2.22,12.71,26.49,26.49,0,0,1-6.38,10.08,42.31,42.31,0,0,1-5.61,4.62,33.36,33.36,0,0,1-6.75,3.6,44.73,44.73,0,0,1-8,2.31,51.32,51.32,0,0,1-9.71.83H482.57V608H457.45v-95.6h38.83a64.46,64.46,0,0,1,14.94,1.51,36.84,36.84,0,0,1,11.39,4.78,24.48,24.48,0,0,1,8.73,9.6A30.84,30.84,0,0,1,534.43,542.59Zm-25.79.57a12,12,0,0,0-2-7,10.45,10.45,0,0,0-4.84-4,21.8,21.8,0,0,0-6.81-1.7c-2.18-.15-5.12-.22-8.84-.22h-3.56v28.63h1.75q3.56,0,6.72-.06a38.41,38.41,0,0,0,5.5-.45,18.81,18.81,0,0,0,4.27-1.25,11.22,11.22,0,0,0,3.46-2.09,12.66,12.66,0,0,0,3.46-4.94A21.58,21.58,0,0,0,508.64,543.16Z"/></g><g class="cls-5"><path class="cls-1" d="M627.81,578.73A26.67,26.67,0,0,1,625,591.26a25.83,25.83,0,0,1-7.59,8.92,35.73,35.73,0,0,1-12.39,6A68.21,68.21,0,0,1,587.84,608h-40v-95.6h35.33a130,130,0,0,1,16.7.8,33.26,33.26,0,0,1,10.64,3.37,18.93,18.93,0,0,1,8,7.38,21.05,21.05,0,0,1,2.65,10.66,21.85,21.85,0,0,1-3.66,12.46,21.38,21.38,0,0,1-10.11,8v.51q9.27,1.86,14.85,7.61T627.81,578.73Zm-32.17-39.29a10.41,10.41,0,0,0-1.25-4.75,7.3,7.3,0,0,0-3.86-3.53,16.63,16.63,0,0,0-5.88-1.13q-3.39-.09-10.11-.09H572.8v20.22H576q6.45,0,9-.13a15,15,0,0,0,5.34-1.34,7.91,7.91,0,0,0,4.16-3.73A12.46,12.46,0,0,0,595.64,539.44ZM602,578.29a10,10,0,0,0-7.52-10.73,20.78,20.78,0,0,0-6.28-.93q-4-.09-10.72-.09H572.8v23.94h1.34q9.81,0,13.57-.12a22.14,22.14,0,0,0,7.66-1.74,9.86,9.86,0,0,0,5-4.14A12.15,12.15,0,0,0,602,578.29Z"/><path class="cls-1" d="M728.58,608H703.86V545l-38.43,63H642.19v-95.6h24.72v57l35.53-57h26.14Z"/><path class="cls-1" d="M792,609.88q-22.5,0-35.74-13T743,560.31q0-22.74,13.26-36.25t35.78-13.51a80.78,80.78,0,0,1,10.74.64,75,75,0,0,1,9.14,1.79,70.19,70.19,0,0,1,7.46,2.64q4,1.67,6.51,2.89V541.3h-2.55q-1.82-1.54-4.57-3.69a58.49,58.49,0,0,0-6.25-4.21,42.67,42.67,0,0,0-7.69-3.5,26.84,26.84,0,0,0-8.77-1.44,29.21,29.21,0,0,0-10,1.64,23.88,23.88,0,0,0-8.63,5.68,27.06,27.06,0,0,0-6.15,9.89,41,41,0,0,0-2.38,14.7,39.59,39.59,0,0,0,2.48,15,27.09,27.09,0,0,0,6.52,9.8,24,24,0,0,0,8.7,5.2,30,30,0,0,0,9.57,1.6,28.47,28.47,0,0,0,9.47-1.57,38.59,38.59,0,0,0,7.59-3.5,50.55,50.55,0,0,0,5.91-4c1.71-1.36,3.18-2.59,4.44-3.66h2.28v22.48l-6.38,2.79a60.12,60.12,0,0,1-7.46,2.67,85.42,85.42,0,0,1-8.8,2A70,70,0,0,1,792,609.88Z"/></g><g class="cls-5"><path class="cls-1" d="M974.67,630h-23V608H881v-95.6h25.12v77.43h34V512.41H965.2v77.43h9.47Z"/><path class="cls-1" d="M987.77,608v-95.6h67.64v18.23h-42.65V547.4h39.29v18.24h-39.29v24.14h42.65V608Z"/><path class="cls-1" d="M1156.85,608h-25.13V565.64h-34.19V608h-25.12v-95.6h25.12v35h34.19v-35h25.13Z"/></g><g class="cls-5"><path class="cls-6" d="M1196.9,608V530.64h-29.55V512.41h84.23v18.23H1222V608Z"/><path class="cls-6" d="M1338.91,542.59a36.51,36.51,0,0,1-2.22,12.71,26.61,26.61,0,0,1-6.38,10.08,42.31,42.31,0,0,1-5.61,4.62,33.9,33.9,0,0,1-6.75,3.6,44.61,44.61,0,0,1-8,2.31,51.21,51.21,0,0,1-9.7.83h-13.17V608h-25.12v-95.6h38.82a64.49,64.49,0,0,1,15,1.51,36.84,36.84,0,0,1,11.39,4.78,24.48,24.48,0,0,1,8.73,9.6A30.84,30.84,0,0,1,1338.91,542.59Zm-25.8.57a12,12,0,0,0-2-7,10.5,10.5,0,0,0-4.84-4,21.8,21.8,0,0,0-6.81-1.7c-2.18-.15-5.12-.22-8.84-.22h-3.56v28.63h1.75q3.56,0,6.72-.06a38.54,38.54,0,0,0,5.5-.45,18.81,18.81,0,0,0,4.27-1.25,11.22,11.22,0,0,0,3.46-2.09,12.66,12.66,0,0,0,3.46-4.94A21.62,21.62,0,0,0,1313.11,543.16Z"/></g></g></g></g></svg>