<?xml version="1.0" encoding="utf-8"?>
<!-- Generator: Adobe Illustrator 23.1.0, SVG Export Plug-In . SVG Version: 6.00 Build 0)  -->
<svg version="1.1" id="Слой_1" xmlns="http://www.w3.org/2000/svg" xmlns:xlink="http://www.w3.org/1999/xlink" x="0px" y="0px"
	 viewBox="0 0 1000 1600" style="enable-background:new 0 0 1000 1600;" xml:space="preserve">
<rect x="0.5" y="-0.5" style="stroke:#FFFFFF;stroke-miterlimit:10;" width="1000" height="1600"/>
<g style="opacity:0.4;">
	<polygon style="fill:none;stroke:#FFFFFF;stroke-width:11;stroke-miterlimit:10;" points="533.6855469,1121.8522949 
		132.7579498,839.6449585 438.3153381,397.5602112 839.242981,679.7675781 	"/>
	<polyline style="fill:none;stroke:#FFFFFF;stroke-width:11;stroke-miterlimit:10;" points="643.6837769,542.1162109 
		758.4000244,427.3999939 615.5,284.5 810,90 	"/>
	<polyline style="fill:none;stroke:#FFFFFF;stroke-width:11;stroke-miterlimit:10;" points="657.9031982,942.1325073 
		792.385376,1076.614624 792.385376,1490.5 	"/>
	<polyline style="fill:none;stroke:#FFFFFF;stroke-width:11;stroke-miterlimit:10;" points="352.486084,994.3085327 
		212.3973236,1134.3973389 212.3973236,1490.5 	"/>
	<polyline style="fill:none;stroke:#FFFFFF;stroke-width:11;stroke-miterlimit:10;" points="289.8598938,612.3476563 
		152.2561188,474.7438965 152.2561188,52.5 	"/>
	
		<line style="fill:none;stroke:#FFFFFF;stroke-width:11;stroke-miterlimit:10;" x1="209.907547" y1="728.0238647" x2="57.5" y2="728.0238647"/>
	
		<line style="fill:none;stroke:#FFFFFF;stroke-width:11;stroke-miterlimit:10;" x1="215.475769" y1="897.8688965" x2="105.1723404" y2="1008.1723633"/>
	<polyline style="fill:none;stroke:#FFFFFF;stroke-width:11;stroke-miterlimit:10;" points="238.5,1121.5 352.5,1255.5 
		606.5,1255.5 	"/>
	<polyline style="fill:none;stroke:#FFFFFF;stroke-width:11;stroke-miterlimit:10;" points="759.4660034,1043.6953125 
		874.5806274,928.5806274 931.5,1255.5 	"/>
	<polyline style="fill:none;stroke:#FFFFFF;stroke-width:11;stroke-miterlimit:10;" points="759.4660034,795.1900024 913.5,786.5 
		950.5,558.5 	"/>
	<polyline style="fill:none;stroke:#FFFFFF;stroke-width:11;stroke-miterlimit:10;" points="42.5,999.5 105.5,1180.5 209.5,1305.5 	
		"/>
	<polyline style="fill:none;stroke:#FFFFFF;stroke-width:11;stroke-miterlimit:10;" points="160.5,282.5 282.5,282.5 422.5,89.5 	
		"/>
	<polyline style="fill:none;stroke:#FFFFFF;stroke-width:11;stroke-miterlimit:10;" points="688.112915,357.112915 577.5,397.5 
		458.5,205.5 	"/>
	<polyline style="fill:none;stroke:#FFFFFF;stroke-width:11;stroke-miterlimit:10;" points="740.1903076,445.6096802 809.5,505.5 
		931.5,323.5 	"/>
	<polyline style="fill:none;stroke:#FFFFFF;stroke-width:11;stroke-miterlimit:10;" points="175.9496613,498.437439 81.5,573.5 
		21.5,296.5 	"/>
	<line style="fill:none;stroke:#FFFFFF;stroke-width:11;stroke-miterlimit:10;" x1="635.5" y1="1143.5" x2="649.5" y2="1389.5"/>
</g>
</svg>
